<svg width="73" height="72" viewBox="0 0 73 72" fill="none" xmlns="http://www.w3.org/2000/svg">
<path d="M63.0397 6L57.0397 12M57.0397 12L66.0397 21L55.5397 31.5L46.5397 22.5M57.0397 12L46.5397 22.5M34.2097 34.83C35.7588 36.3584 36.9901 38.1781 37.833 40.1844C38.6759 42.1906 39.1135 44.3438 39.1208 46.5199C39.1281 48.696 38.7049 50.852 37.8755 52.8639C37.0461 54.8758 35.8269 56.7037 34.2882 58.2424C32.7494 59.7812 30.9215 61.0003 28.9096 61.8297C26.8978 62.6591 24.7417 63.0824 22.5656 63.0751C20.3895 63.0678 18.2364 62.6301 16.2301 61.7873C14.2238 60.9444 12.4041 59.713 10.8757 58.164C7.87012 55.0521 6.20702 50.8841 6.24461 46.5579C6.28221 42.2316 8.01749 38.0932 11.0767 35.034C14.136 31.9748 18.2744 30.2395 22.6006 30.2019C26.9269 30.1643 31.0948 31.8274 34.2067 34.833L34.2097 34.83ZM34.2097 34.83L46.5397 22.5" stroke="#F8CC58" stroke-width="4" stroke-linecap="round" stroke-linejoin="round"/>
</svg>
