<svg width="73" height="72" viewBox="0 0 73 72" fill="none" xmlns="http://www.w3.org/2000/svg">
<path d="M42.0993 6H18.0993C16.508 6 14.9819 6.63214 13.8567 7.75736C12.7314 8.88258 12.0993 10.4087 12.0993 12V60C12.0993 61.5913 12.7314 63.1174 13.8567 64.2426C14.9819 65.3679 16.508 66 18.0993 66H54.0993C55.6906 66 57.2167 65.3679 58.3419 64.2426C59.4672 63.1174 60.0993 61.5913 60.0993 60V24L42.0993 6Z" stroke="#F8CC58" stroke-width="4" stroke-linecap="round" stroke-linejoin="round"/>
<path d="M42.0993 6V24H60.0993" stroke="#F8CC58" stroke-width="4" stroke-linecap="round" stroke-linejoin="round"/>
<path d="M48.0993 39H24.0993" stroke="#F8CC58" stroke-width="4" stroke-linecap="round" stroke-linejoin="round"/>
<path d="M48.0993 51H24.0993" stroke="#F8CC58" stroke-width="4" stroke-linecap="round" stroke-linejoin="round"/>
<path d="M30.0993 27H27.0993H24.0993" stroke="#F8CC58" stroke-width="4" stroke-linecap="round" stroke-linejoin="round"/>
</svg>
