<svg width="73" height="72" viewBox="0 0 73 72" fill="none" xmlns="http://www.w3.org/2000/svg">
<path d="M60.2089 21H12.2089C8.89515 21 6.20886 23.6863 6.20886 27V57C6.20886 60.3137 8.89515 63 12.2089 63H60.2089C63.5226 63 66.2089 60.3137 66.2089 57V27C66.2089 23.6863 63.5226 21 60.2089 21Z" stroke="#F8CC58" stroke-width="4" stroke-linecap="round" stroke-linejoin="round"/>
<path d="M48.2089 63V15C48.2089 13.4087 47.5767 11.8826 46.4515 10.7574C45.3263 9.63214 43.8002 9 42.2089 9H30.2089C28.6176 9 27.0914 9.63214 25.9662 10.7574C24.841 11.8826 24.2089 13.4087 24.2089 15V63" stroke="#F8CC58" stroke-width="4" stroke-linecap="round" stroke-linejoin="round"/>
</svg>
