<svg width="73" height="72" viewBox="0 0 73 72" fill="none" xmlns="http://www.w3.org/2000/svg">
<path d="M11.6997 43.5523L11.6832 43.4069L11.5484 43.3501C7.592 41.6821 4.80951 37.7656 4.80951 33.2102C4.80951 27.145 9.74433 22.2102 15.8095 22.2102H24.2785H24.3375L24.3903 22.1838L41.9133 13.42C41.9133 13.42 41.9133 13.42 41.9133 13.42C42.5336 13.1099 43.2693 13.1421 43.859 13.5079C44.4498 13.8744 44.8095 14.5166 44.8095 15.2102V24.5297V24.723L44.9967 24.7717C48.7631 25.7499 51.5595 29.1481 51.5595 33.2102C51.5595 37.2723 48.7631 40.6704 44.9967 41.6487L44.8095 41.6973V41.8907V51.2102C44.8095 51.904 44.4496 52.5479 43.8576 52.912L43.857 52.9123C43.5373 53.1101 43.1735 53.2102 42.8073 53.2102C42.5018 53.2102 42.1979 53.1405 41.9128 53.0001C41.9126 53 41.9123 52.9998 41.912 52.9997L24.3881 44.2366L24.3353 44.2102H24.2763H23.689H23.3448L23.4513 44.5375L25.3188 50.2773L25.5565 50.1999L25.3188 50.2773C26.428 53.6851 24.556 57.36 21.1503 58.4694C20.4822 58.6863 19.8085 58.7902 19.1418 58.7902C16.4025 58.7902 13.8482 57.0431 12.9557 54.3008L12.9555 54.3002C12.9139 54.1734 12.8861 54.0423 12.8722 53.909L12.8719 53.9068L11.6997 43.5523ZM16.8166 53.1914L16.8207 53.227L16.8346 53.2601C17.3321 54.4426 18.6643 55.073 19.9124 54.6653C21.2248 54.2377 21.9423 52.8254 21.5147 51.5151L19.1927 44.3828L19.1365 44.2102H18.955H16.0773H15.7973L15.8289 44.4884L16.8166 53.1914ZM44.8095 37.0847V37.5199L45.1855 37.3006C46.5958 36.4781 47.5595 34.9633 47.5595 33.2102C47.5595 31.4572 46.5958 29.9421 45.1852 29.1218L44.8095 28.9034V29.3379V37.0847ZM40.4477 47.7933L40.8095 47.9742V47.5697V18.8507V18.4462L40.4477 18.6271L26.9477 25.3771L26.8095 25.4462V25.6007V40.8197V40.9742L26.9477 41.0433L40.4477 47.7933ZM22.8095 26.4602V26.2102H22.5595H15.8095C11.9499 26.2102 8.80951 29.3506 8.80951 33.2102C8.80951 37.0698 11.9499 40.2102 15.8095 40.2102H22.5595H22.8095V39.9602V26.4602Z" fill="#F8CC58" stroke="#0B0B10" stroke-width="0.5"/>
<path d="M65.3095 35.21H60.8095C59.7035 35.21 58.8095 34.3141 58.8095 33.21C58.8095 32.1059 59.7035 31.21 60.8095 31.21H65.3095C66.4155 31.21 67.3095 32.1059 67.3095 33.21C67.3095 34.3141 66.4155 35.21 65.3095 35.21Z" fill="#F8CC58" stroke="#0B0B10" stroke-width="0.5"/>
<path d="M58.8966 22.8465L58.8961 22.846C58.114 22.0639 58.114 20.8002 58.8961 20.0181L62.0776 16.8366C62.8597 16.0545 64.1234 16.0545 64.9055 16.8366C65.6877 17.6187 65.6877 18.8824 64.9055 19.6645L61.724 22.846C61.334 23.2361 60.8223 23.4321 60.3101 23.4321C59.7972 23.4321 59.2861 23.238 58.8966 22.8465Z" fill="#F8CC58" stroke="#0B0B10" stroke-width="0.5"/>
<path d="M63.991 50.3007C63.4788 50.3007 62.9671 50.1048 62.5771 49.7147L59.3955 46.5332C58.6134 45.7511 58.6134 44.4874 59.3955 43.7052C60.1777 42.9231 61.4414 42.9231 62.2235 43.7052L65.405 46.8867C66.1871 47.6689 66.1871 48.9326 65.405 49.7147C65.0149 50.1048 64.5033 50.3007 63.991 50.3007Z" fill="#F8CC58" stroke="#0B0B10" stroke-width="0.5"/>
</svg>
