<svg width="18" height="16" viewBox="0 0 18 16" fill="none" xmlns="http://www.w3.org/2000/svg">
<path d="M1.09937 7C0.54708 7 0.0993652 7.44772 0.0993652 8C0.0993652 8.55228 0.54708 9 1.09937 9V7ZM16.8065 8.70711C17.197 8.31658 17.197 7.68342 16.8065 7.29289L10.4425 0.928932C10.052 0.538408 9.41882 0.538408 9.0283 0.928932C8.63777 1.31946 8.63777 1.95262 9.0283 2.34315L14.6852 8L9.0283 13.6569C8.63777 14.0474 8.63777 14.6805 9.0283 15.0711C9.41882 15.4616 10.052 15.4616 10.4425 15.0711L16.8065 8.70711ZM1.09937 9H16.0994V7H1.09937V9Z" fill="#F8CC58"/>
</svg>
