<svg width="31" height="31" viewBox="0 0 31 31" fill="none" xmlns="http://www.w3.org/2000/svg">
<path d="M15.5029 6.45834L16.1879 5.77333C15.8096 5.39502 15.1963 5.39502 14.818 5.77333L15.5029 6.45834ZM15.5029 16.7917L14.818 17.4766C15.1963 17.855 15.8096 17.855 16.1879 17.4766L15.5029 16.7917ZM12.2346 8.35667C11.8563 8.73498 11.8563 9.34837 12.2346 9.72669C12.6129 10.105 13.2262 10.105 13.6046 9.72669L12.2346 8.35667ZM17.4013 9.72669C17.7796 10.105 18.3929 10.105 18.7712 9.72669C19.1496 9.34837 19.1496 8.73498 18.7712 8.35667L17.4013 9.72669ZM13.6046 13.5234C13.2262 13.145 12.6129 13.145 12.2346 13.5234C11.8563 13.9017 11.8563 14.515 12.2346 14.8933L13.6046 13.5234ZM18.7712 14.8933C19.1496 14.515 19.1496 13.9017 18.7712 13.5234C18.3929 13.145 17.7796 13.145 17.4013 13.5234L18.7712 14.8933ZM4.20084 12.9167V18.0833H6.13834V12.9167H4.20084ZM26.805 18.0833V12.9167H24.8675V18.0833H26.805ZM14.5342 6.45834V16.7917H16.4717V6.45834H14.5342ZM14.818 5.77333L12.2346 8.35667L13.6046 9.72669L16.1879 7.14335L14.818 5.77333ZM14.818 7.14335L17.4013 9.72669L18.7712 8.35667L16.1879 5.77333L14.818 7.14335ZM16.1879 16.1067L13.6046 13.5234L12.2346 14.8933L14.818 17.4766L16.1879 16.1067ZM16.1879 17.4766L18.7712 14.8933L17.4013 13.5234L14.818 16.1067L16.1879 17.4766ZM26.805 12.9167C26.805 6.67471 21.7449 1.61459 15.5029 1.61459V3.55209C20.6749 3.55209 24.8675 7.74477 24.8675 12.9167H26.805ZM15.5029 29.3854C21.7449 29.3854 26.805 24.3253 26.805 18.0833H24.8675C24.8675 23.2553 20.6749 27.4479 15.5029 27.4479V29.3854ZM4.20084 18.0833C4.20084 24.3253 9.26096 29.3854 15.5029 29.3854V27.4479C10.331 27.4479 6.13834 23.2553 6.13834 18.0833H4.20084ZM6.13834 12.9167C6.13834 7.74477 10.331 3.55209 15.5029 3.55209V1.61459C9.26096 1.61459 4.20084 6.67471 4.20084 12.9167H6.13834Z" fill="white" fill-opacity="0.2"/>
</svg>
