<svg width="28" height="27" viewBox="0 0 28 27" fill="none" xmlns="http://www.w3.org/2000/svg">
<path d="M22.5596 7.875H4.55957C3.31693 7.875 2.30957 8.88236 2.30957 10.125V21.375C2.30957 22.6176 3.31693 23.625 4.55957 23.625H22.5596C23.8022 23.625 24.8096 22.6176 24.8096 21.375V10.125C24.8096 8.88236 23.8022 7.875 22.5596 7.875Z" stroke="#201E28" stroke-width="2" stroke-linecap="round" stroke-linejoin="round"/>
<path d="M18.0596 23.625V5.625C18.0596 5.02826 17.8225 4.45597 17.4006 4.03401C16.9786 3.61205 16.4063 3.375 15.8096 3.375H11.3096C10.7128 3.375 10.1405 3.61205 9.71858 4.03401C9.29662 4.45597 9.05957 5.02826 9.05957 5.625V23.625" stroke="#201E28" stroke-width="2" stroke-linecap="round" stroke-linejoin="round"/>
</svg>
