<svg width="28" height="27" viewBox="0 0 28 27" fill="none" xmlns="http://www.w3.org/2000/svg">
<path d="M22.0135 7.59375H5.13855C3.74058 7.59375 2.6073 8.72703 2.6073 10.125V20.25C2.6073 21.648 3.74058 22.7812 5.13855 22.7812H22.0135C23.4115 22.7812 24.5448 21.648 24.5448 20.25V10.125C24.5448 8.72703 23.4115 7.59375 22.0135 7.59375Z" stroke="#201E28" stroke-width="2" stroke-linejoin="round"/>
<path d="M21.7689 7.59376V6.01172C21.7687 5.62371 21.683 5.2405 21.5177 4.88945C21.3524 4.53839 21.1117 4.22814 20.8127 3.98083C20.5137 3.73352 20.1638 3.55525 19.788 3.45873C19.4122 3.36221 19.0197 3.34983 18.6385 3.42247L4.75043 5.79288C4.14731 5.90781 3.60322 6.22961 3.21198 6.70278C2.82074 7.17594 2.60688 7.77081 2.6073 8.38477V10.9688" stroke="#201E28" stroke-width="2" stroke-linejoin="round"/>
<path d="M19.4823 16.875C19.1485 16.875 18.8223 16.776 18.5448 16.5906C18.2673 16.4052 18.051 16.1416 17.9233 15.8333C17.7955 15.5249 17.7621 15.1856 17.8272 14.8583C17.8923 14.5309 18.0531 14.2303 18.2891 13.9943C18.5251 13.7583 18.8257 13.5975 19.1531 13.5324C19.4804 13.4673 19.8197 13.5007 20.1281 13.6285C20.4364 13.7562 20.7 13.9725 20.8854 14.25C21.0708 14.5275 21.1698 14.8537 21.1698 15.1875C21.1698 15.6351 20.992 16.0643 20.6755 16.3807C20.3591 16.6972 19.9299 16.875 19.4823 16.875Z" fill="#201E28"/>
</svg>
