<svg width="147" height="35" viewBox="0 0 147 35" fill="none" xmlns="http://www.w3.org/2000/svg">
<g id="Logo2">
<path id="Vector" d="M56.3839 35C52.3815 35 49.0756 33.663 46.4664 30.9891C43.8572 28.3151 42.5526 25.0173 42.5526 21.0955C42.5526 17.1482 43.8572 13.8504 46.4664 11.2019C49.0756 8.52797 52.3815 7.191 56.3839 7.191C58.7905 7.191 61.0071 7.76398 63.0336 8.90996C65.0855 10.0305 66.6814 11.5584 67.8214 13.4939L63.2996 16.1296C62.641 14.9327 61.7037 14.0032 60.4877 13.3411C59.2718 12.6535 57.9039 12.3097 56.3839 12.3097C53.8001 12.3097 51.7102 13.1246 50.1143 14.7544C48.5437 16.3843 47.7584 18.498 47.7584 21.0955C47.7584 23.6676 48.5437 25.7685 50.1143 27.3984C51.7102 29.0282 53.8001 29.8431 56.3839 29.8431C57.9039 29.8431 59.2718 29.512 60.4877 28.8499C61.729 28.1623 62.6663 27.2328 63.2996 26.0614L67.8214 28.6971C66.6814 30.6326 65.0982 32.1733 63.0716 33.3192C61.0451 34.4397 58.8158 35 56.3839 35ZM75.0676 26.94C75.7263 29.3338 77.5122 30.5307 80.4254 30.5307C82.2999 30.5307 83.7185 29.894 84.6812 28.6207L88.633 30.9127C86.7584 33.6376 83.9972 35 80.3494 35C77.2082 35 74.6877 34.045 72.7877 32.1351C70.8878 30.2251 69.9379 27.8186 69.9379 24.9154C69.9379 22.0377 70.8752 19.6439 72.7497 17.734C74.6243 15.7985 77.0309 14.8308 79.9694 14.8308C82.7559 14.8308 85.0485 15.7985 86.8471 17.734C88.671 19.6694 89.5829 22.0632 89.5829 24.9154C89.5829 25.5521 89.5196 26.2269 89.3929 26.94H75.0676ZM74.9916 23.1201H84.6812C84.4025 21.8213 83.8199 20.8536 82.9332 20.2169C82.072 19.5803 81.084 19.2619 79.9694 19.2619C78.6521 19.2619 77.5628 19.6057 76.7015 20.2933C75.8403 20.9554 75.2703 21.8977 74.9916 23.1201ZM97.9066 18.6508C98.3626 17.4284 99.1099 16.5116 100.149 15.9004C101.212 15.2892 102.39 14.9836 103.682 14.9836V20.4843C102.188 20.306 100.845 20.6116 99.6545 21.4011C98.4893 22.1905 97.9066 23.502 97.9066 25.3356V34.4652H93.0049V15.3656H97.9066V18.6508ZM117.936 20.1023H113.642V28.0477C113.642 28.7099 113.807 29.1937 114.136 29.4993C114.466 29.8049 114.947 29.9832 115.58 30.0341C116.214 30.0596 116.999 30.0468 117.936 29.9959V34.4652C114.567 34.8472 112.186 34.5289 110.793 33.5102C109.425 32.4916 108.741 30.6708 108.741 28.0477V20.1023H105.435V15.3656H108.741V11.5075L113.642 10.0177V15.3656H117.936V20.1023ZM123.824 13.0737C123.014 13.0737 122.304 12.7808 121.696 12.1951C121.114 11.5839 120.822 10.8709 120.822 10.0559C120.822 9.24102 121.114 8.52797 121.696 7.91678C122.304 7.30559 123.014 7 123.824 7C124.66 7 125.37 7.30559 125.952 7.91678C126.56 8.52797 126.864 9.24102 126.864 10.0559C126.864 10.8709 126.56 11.5839 125.952 12.1951C125.37 12.7808 124.66 13.0737 123.824 13.0737ZM121.392 34.4652V15.3656H126.294V34.4652H121.392ZM135.154 20.7899C135.154 21.2992 135.483 21.7194 136.142 22.0505C136.826 22.3561 137.649 22.6362 138.611 22.8909C139.574 23.1201 140.537 23.4256 141.499 23.8076C142.462 24.1642 143.273 24.7754 143.931 25.6412C144.615 26.507 144.957 27.5894 144.957 28.8881C144.957 30.849 144.223 32.3643 142.753 33.4338C141.309 34.4779 139.498 35 137.32 35C133.418 35 130.759 33.4848 129.34 30.4543L133.596 28.0477C134.153 29.703 135.394 30.5307 137.32 30.5307C139.067 30.5307 139.941 29.9832 139.941 28.8881C139.941 28.3788 139.599 27.9713 138.915 27.6658C138.257 27.3347 137.446 27.0418 136.484 26.7872C135.521 26.5325 134.558 26.2142 133.596 25.8322C132.633 25.4502 131.81 24.8518 131.126 24.0368C130.467 23.1965 130.138 22.1523 130.138 20.9045C130.138 19.02 130.822 17.543 132.19 16.4734C133.583 15.3784 135.306 14.8308 137.358 14.8308C138.903 14.8308 140.309 15.1874 141.575 15.9004C142.842 16.588 143.843 17.5812 144.577 18.8799L140.397 21.1719C139.789 19.8731 138.776 19.2237 137.358 19.2237C136.724 19.2237 136.192 19.3638 135.762 19.6439C135.356 19.9241 135.154 20.306 135.154 20.7899Z" fill="white"/>
<path id="Vector_2" fill-rule="evenodd" clip-rule="evenodd" d="M12.9423 4.45861L28.2093 19.7256V30.1114L7.6923 9.59446L0 17.1196V35H12.4973L6.41029 28.9131V18.5272L22.8831 35H35V17.1196L17.5 0L12.9423 4.45861Z" fill="#F8CC58"/>
</g>
</svg>
