<svg width="179" height="178" viewBox="0 0 179 178" fill="none" xmlns="http://www.w3.org/2000/svg">
<g filter="url(#filter0_dd_58_11)">
<path d="M130.057 118.523L130.057 130.905L133.153 129.667L133.153 117.285L130.057 118.523Z" fill="#F8CC58"/>
<path d="M130.057 118.523L130.057 130.905L133.153 129.667L133.153 117.285L130.057 118.523Z" fill="black" fill-opacity="0.4"/>
</g>
<g filter="url(#filter1_dd_58_11)">
<path d="M45.2372 42.9897H57.6197L56.3815 46.0854H43.999L45.2372 42.9897Z" fill="#F8CC58"/>
<path d="M45.2372 42.9897H57.6197L56.3815 46.0854H43.999L45.2372 42.9897Z" fill="black" fill-opacity="0.4"/>
</g>
<g filter="url(#filter2_bdd_58_11)">
<path d="M87.9567 42.9898L133.153 86.9475L133.153 129.667L45.2373 42.9898L87.9567 42.9898Z" fill="url(#paint0_linear_58_11)"/>
<path d="M87.9567 42.9898L133.153 86.9475L133.153 129.667L45.2373 42.9898L87.9567 42.9898Z" fill="#F8CC58"/>
<path d="M87.9567 42.9898L133.153 86.9475L133.153 129.667L45.2373 42.9898L87.9567 42.9898Z" fill="url(#paint1_linear_58_11)" fill-opacity="0.2"/>
<path d="M46.4566 43.4898L87.7537 43.4898L132.653 87.1587L132.653 128.472L46.4566 43.4898Z" stroke="url(#paint2_linear_58_11)" stroke-opacity="0.3"/>
</g>
<path d="M76.6888 54.4072L78.0578 53.0383C79.2401 51.856 79.4579 51.6382 79.6912 51.3738C79.9401 51.0937 80.0024 50.9071 79.8001 50.5959C79.7534 50.5182 79.629 50.3782 79.5201 50.2693C79.4345 50.1837 79.4034 50.1215 79.4579 50.067C79.5123 50.0126 79.5823 50.0515 79.699 50.1681C80.1112 50.5804 80.5779 51.0937 80.7957 51.3115C81.1146 51.6304 81.5891 52.0582 81.9469 52.416C82.9192 53.3883 82.9425 54.065 82.9503 54.3061C82.9581 54.6406 82.8258 55.2084 82.4136 55.6206C81.3091 56.7251 79.7223 56.694 78.6178 55.5895C78.5789 55.5506 78.4934 55.4651 78.4623 55.4184C78.4312 55.3717 78.3845 55.3095 78.4389 55.2551C78.5012 55.1928 78.5789 55.224 78.7423 55.3873C79.1779 55.8229 80.2746 55.9395 81.068 55.1462C81.3246 54.8895 81.8224 54.345 81.7758 53.5205C81.7524 52.9838 81.4802 52.6183 81.3013 52.4394C81.1846 52.3227 81.0602 52.2138 80.9668 52.1671C80.9124 52.1438 80.8424 52.1671 80.7568 52.2527L77.6456 55.364C76.93 56.0796 76.3155 56.694 76.0199 57.0674C75.8255 57.3085 75.701 57.5263 75.9033 57.7908C75.9966 57.9152 76.1522 58.1019 76.2688 58.2186C76.3544 58.3041 76.3699 58.3663 76.3311 58.4052C76.2766 58.4597 76.191 58.4208 76.1055 58.3352C75.5921 57.8219 75.1254 57.3085 74.9232 57.1063C74.7443 56.9274 74.2309 56.4607 73.9198 56.1496C73.8187 56.0484 73.7876 55.9707 73.842 55.9162C73.8809 55.8773 73.9354 55.8851 74.0287 55.9784C74.1454 56.0951 74.2543 56.1729 74.3398 56.2273C74.5265 56.3518 74.7365 56.2196 74.9932 56.0251C75.3588 55.7373 75.9733 55.1228 76.6888 54.4072ZM83.2184 61.3879L81.4839 59.6534C81.445 59.6145 81.4138 59.6145 81.3516 59.6456L79.8193 60.3379C79.5471 60.4545 79.3215 60.6023 79.2282 60.6957C79.0882 60.8357 79.0571 61.0068 79.2982 61.2479L79.4149 61.3646C79.5082 61.4579 79.516 61.4968 79.4693 61.5435C79.4071 61.6057 79.3449 61.5746 79.2593 61.489C79.0104 61.2401 78.6993 60.8823 78.4581 60.6412C78.3726 60.5556 77.9214 60.1512 77.517 59.7467C77.4159 59.6456 77.3848 59.5834 77.447 59.5212C77.4936 59.4745 77.5403 59.49 77.6025 59.5523C77.6725 59.6223 77.7892 59.7234 77.8592 59.7778C78.2637 60.089 78.6759 59.9723 79.2204 59.7389L86.0574 56.8066C86.3763 56.6743 86.5086 56.6354 86.5863 56.7132C86.6563 56.7832 86.633 56.8999 86.5319 57.1566C86.2908 57.7711 84.3618 62.1891 83.6773 63.8692C83.2728 64.8648 83.3895 65.1992 83.514 65.4015C83.6073 65.5415 83.7162 65.6659 83.8095 65.7592C83.8718 65.8215 83.9029 65.8681 83.8484 65.9226C83.7862 65.9848 83.7006 65.9304 83.4128 65.6426C83.1328 65.3626 82.565 64.7948 81.9583 64.1569C81.8261 64.0092 81.7328 63.9158 81.7872 63.8614C81.8339 63.8147 81.8805 63.8303 81.9661 63.9003C82.0361 63.9392 82.1606 63.9236 82.215 63.7914L83.2417 61.5201C83.2651 61.4657 83.2573 61.4268 83.2184 61.3879ZM82.0283 59.42L83.4595 60.8512C83.4984 60.8901 83.5295 60.8746 83.5451 60.8434L84.7662 58.2222C84.7896 58.1833 84.8207 58.1366 84.7974 58.1133C84.774 58.09 84.7196 58.1133 84.6807 58.1366L82.0517 59.3345C82.0128 59.3578 81.9972 59.3889 82.0283 59.42ZM86.8445 64.5629L88.2135 63.194C89.3958 62.0117 89.6136 61.7939 89.8469 61.5294C90.0958 61.2494 90.158 61.0627 89.9558 60.7516C89.9091 60.6738 89.7847 60.5338 89.6758 60.4249C89.5902 60.3394 89.5591 60.2772 89.6136 60.2227C89.668 60.1683 89.738 60.2072 89.8547 60.3238C90.2669 60.7361 90.7336 61.2494 90.897 61.4128C91.1614 61.6772 91.7759 62.245 92.017 62.4862C92.507 62.9762 92.9815 63.544 93.1137 64.2518C93.1837 64.6174 93.0982 65.3252 92.577 65.8463C92.0015 66.4219 91.2314 66.7097 89.808 66.5619C89.6291 68.1253 89.4736 69.3543 89.4502 70.2954C89.4347 71.1822 89.6991 71.5555 89.7925 71.6955C89.8625 71.7966 89.9247 71.8744 89.9869 71.9366C90.0491 71.9989 90.0569 72.0533 90.018 72.0922C89.9558 72.1544 89.8858 72.1155 89.7925 72.0222L89.0535 71.2833C88.618 70.8477 88.4624 70.6143 88.3691 70.3032C88.2135 69.7899 88.2835 69.1287 88.4468 68.0942C88.5635 67.3553 88.7346 66.4686 88.7502 66.2508C88.758 66.1652 88.7191 66.1108 88.6646 66.0563L88.0035 65.3641C87.9646 65.3252 87.9257 65.3174 87.879 65.3641L87.7701 65.473C87.0468 66.1963 86.4323 66.8108 86.1445 67.1764C85.9423 67.4253 85.8178 67.6431 86.02 67.9075C86.1212 68.0398 86.2767 68.2264 86.3701 68.3198C86.4323 68.382 86.4401 68.4365 86.4012 68.4754C86.3467 68.5298 86.2689 68.4987 86.1678 68.3976C85.7167 67.9464 85.1644 67.3475 85.0478 67.2308C84.9 67.0831 84.3866 66.6164 84.0755 66.3052C83.9744 66.2041 83.9433 66.1263 83.9977 66.0719C84.0366 66.033 84.0911 66.0408 84.1844 66.1341C84.3011 66.2508 84.41 66.3286 84.4955 66.383C84.6822 66.5075 84.8922 66.3752 85.1489 66.1808C85.5145 65.893 86.1289 65.2785 86.8445 64.5629ZM90.8814 62.3617L88.5168 64.7263C88.4313 64.8118 88.4157 64.8585 88.4468 64.9363C88.5557 65.1541 88.7657 65.4107 88.9602 65.6052C89.2713 65.9163 89.4036 65.9863 89.6447 66.0252C90.0491 66.0875 90.6325 65.9552 91.2703 65.3174C92.3748 64.2129 91.9626 63.1629 91.5037 62.7039C91.3092 62.5095 91.1614 62.3773 91.0603 62.3228C90.9903 62.2839 90.9436 62.2995 90.8814 62.3617ZM92.7161 70.4345L94.0851 69.0656C95.2674 67.8833 95.4852 67.6655 95.7185 67.4011C95.9674 67.121 96.0296 66.9344 95.8274 66.6232C95.7807 66.5455 95.6563 66.4054 95.5474 66.2965C95.4618 66.211 95.4307 66.1488 95.4852 66.0943C95.5396 66.0399 95.6096 66.0788 95.7263 66.1954C96.1385 66.6077 96.6052 67.121 96.823 67.3388C97.0641 67.5799 97.5775 68.0466 98.0442 68.5133C99.0165 69.4856 100.315 70.7846 100.277 72.5191C100.261 73.3125 99.981 74.3236 99.0554 75.2492C98.0753 76.2293 96.9164 76.5637 96.0374 76.5715C95.3141 76.5793 93.9529 76.3226 92.5139 74.8837C92.2339 74.6036 91.9383 74.2614 91.6661 73.9425C91.3939 73.6236 91.145 73.328 90.9505 73.1336C90.8649 73.048 90.6938 72.8769 90.4994 72.698C90.3205 72.5191 90.1027 72.3324 89.9471 72.1768C89.846 72.0757 89.8149 71.998 89.8693 71.9435C89.9082 71.9046 89.9627 71.9124 90.056 72.0057C90.1727 72.1224 90.2816 72.2002 90.3671 72.2546C90.5538 72.3791 90.7638 72.2469 91.0205 72.0524C91.3861 71.7646 92.0006 71.1501 92.7161 70.4345ZM95.1818 69.9134L94.2018 70.8935C93.3773 71.7179 92.7861 72.3246 92.6461 72.4802C92.4595 72.6824 92.1639 73.0091 92.1406 73.1569C92.0939 73.4058 92.2339 73.8725 92.8484 74.487C93.6417 75.2803 94.3262 75.6537 95.1974 75.7159C96.123 75.7859 96.9864 75.2337 97.7875 74.4325C98.7753 73.4447 99.0009 72.3946 98.9854 71.7413C98.9542 70.3412 98.1609 69.3612 97.5542 68.7545C97.3986 68.5989 97.0875 68.3344 96.9941 68.3033C96.893 68.2644 96.8308 68.28 96.7452 68.3655C96.473 68.6222 95.7963 69.2989 95.1818 69.9134ZM99.8919 77.1436L101.027 76.008C102.21 74.8257 102.428 74.6079 102.661 74.3434C102.91 74.0634 102.972 73.8767 102.77 73.5656C102.723 73.4878 102.599 73.3478 102.49 73.2389C102.404 73.1534 102.373 73.0911 102.428 73.0367C102.482 72.9823 102.552 73.0211 102.669 73.1378C103.081 73.5501 103.548 74.0634 103.781 74.2968C103.968 74.4834 104.481 74.9501 104.761 75.2301C104.878 75.3468 104.917 75.4168 104.862 75.4713C104.808 75.5257 104.745 75.4946 104.668 75.4168C104.582 75.3313 104.528 75.2924 104.419 75.2146C104.17 75.0435 103.975 75.1135 103.688 75.3702C103.423 75.6035 103.205 75.8213 102.023 77.0036L100.934 78.0925C99.8063 79.2204 99.5574 79.9204 99.6274 80.6126C99.6896 81.2505 100.016 81.6394 100.281 81.9038C100.623 82.2461 101.152 82.5572 101.774 82.5572C102.63 82.5572 103.353 81.8805 104.154 81.0793L105.127 80.1071C106.309 78.9248 106.527 78.707 106.76 78.4425C107.009 78.1625 107.071 77.9758 106.869 77.6647C106.822 77.5869 106.698 77.4469 106.612 77.3614C106.527 77.2758 106.496 77.2136 106.55 77.1591C106.604 77.1047 106.674 77.1436 106.783 77.2525C107.18 77.6492 107.647 78.1625 107.654 78.1703C107.748 78.2636 108.261 78.7303 108.565 79.0337C108.673 79.1426 108.712 79.2126 108.658 79.267C108.603 79.3215 108.541 79.2904 108.448 79.197C108.362 79.1115 108.308 79.0726 108.199 78.9948C107.95 78.8237 107.756 78.8937 107.468 79.1503C107.203 79.3837 106.986 79.6015 105.803 80.7838L104.971 81.616C104.108 82.4794 103.104 83.3117 101.891 83.2183C100.864 83.1406 100.219 82.6661 99.713 82.1605C99.3007 81.7483 98.5774 80.9782 98.5229 79.8971C98.484 79.1426 98.764 78.2714 99.8919 77.1436ZM106.539 88.9863C104.306 86.754 105.077 84.1794 106.453 82.8027C107.783 81.4726 110.381 80.6326 112.715 82.966C114.651 84.9028 114.729 87.2362 112.948 89.0174C111.167 90.7987 108.514 90.962 106.539 88.9863ZM107.254 88.9241C107.799 89.4686 109.323 90.4642 111.571 88.2163C113.314 86.474 113.391 84.3894 112.116 83.1138C111.221 82.2193 109.705 81.6982 107.768 83.635C106.15 85.2528 105.761 87.4307 107.254 88.9241ZM114.723 92.4412L117.912 89.2522L116.722 88.1244C116.255 87.6888 116.03 87.541 115.742 87.5954C115.547 87.6343 115.415 87.6888 115.337 87.7354C115.26 87.7821 115.205 87.7899 115.158 87.7432C115.104 87.6888 115.127 87.6343 115.213 87.5488C115.337 87.4243 116.193 86.8643 116.271 86.8176C116.395 86.7398 116.465 86.7165 116.512 86.7632C116.574 86.8254 116.574 86.981 116.753 87.191C116.955 87.4399 117.235 87.751 117.492 88.0077L120.572 91.0878C120.821 91.3367 121.015 91.4845 121.148 91.5856C121.288 91.679 121.365 91.7257 121.397 91.7568C121.451 91.8112 121.412 91.8657 121.295 91.9823C121.132 92.1457 120.572 92.659 120.37 92.8613C120.284 92.9313 120.222 92.9624 120.175 92.9157C120.113 92.8535 120.136 92.799 120.245 92.6746L120.323 92.5812C120.51 92.3635 120.518 91.9357 119.841 91.2278L118.884 90.2245L115.695 93.4135C114.98 94.1291 114.365 94.7436 114.069 95.1169C113.875 95.3581 113.751 95.5758 113.953 95.8403C114.046 95.9648 114.202 96.1514 114.318 96.2681C114.404 96.3537 114.419 96.4159 114.381 96.4548C114.326 96.5092 114.241 96.4703 114.155 96.3848C113.642 95.8714 113.175 95.3581 112.957 95.1403C112.778 94.9614 112.265 94.4947 111.954 94.1836C111.853 94.0824 111.822 94.0047 111.876 93.9502C111.915 93.9113 111.969 93.9191 112.063 94.0124C112.179 94.1291 112.288 94.2069 112.374 94.2613C112.561 94.3858 112.778 94.2613 113.027 94.0591C113.393 93.7713 114.007 93.1568 114.723 92.4412ZM120.567 98.7368L118.833 97.0023C118.794 96.9634 118.763 96.9634 118.701 96.9945L117.168 97.6868C116.896 97.8034 116.67 97.9512 116.577 98.0446C116.437 98.1846 116.406 98.3557 116.647 98.5968L116.764 98.7135C116.857 98.8068 116.865 98.8457 116.818 98.8924C116.756 98.9546 116.694 98.9235 116.608 98.8379C116.359 98.589 116.048 98.2312 115.807 97.9901C115.721 97.9046 115.27 97.5001 114.866 97.0956C114.765 96.9945 114.734 96.9323 114.796 96.8701C114.843 96.8234 114.889 96.8389 114.951 96.9012C115.021 96.9712 115.138 97.0723 115.208 97.1267C115.613 97.4379 116.025 97.3212 116.569 97.0879L123.406 94.1555C123.725 94.0232 123.857 93.9844 123.935 94.0621C124.005 94.1321 123.982 94.2488 123.881 94.5055C123.64 95.12 121.711 99.538 121.026 101.218C120.622 102.214 120.738 102.548 120.863 102.75C120.956 102.89 121.065 103.015 121.158 103.108C121.221 103.17 121.252 103.217 121.197 103.272C121.135 103.334 121.05 103.279 120.762 102.991C120.482 102.711 119.914 102.144 119.307 101.506C119.175 101.358 119.082 101.265 119.136 101.21C119.183 101.164 119.229 101.179 119.315 101.249C119.385 101.288 119.509 101.273 119.564 101.14L120.591 98.8691C120.614 98.8146 120.606 98.7757 120.567 98.7368ZM119.377 96.7689L120.808 98.2001C120.847 98.239 120.878 98.2235 120.894 98.1924L122.115 95.5711C122.138 95.5322 122.17 95.4855 122.146 95.4622C122.123 95.4389 122.068 95.4622 122.03 95.4855L119.401 96.6834C119.362 96.7067 119.346 96.7378 119.377 96.7689Z" fill="#0F0E13"/>
<defs>
<filter id="filter0_dd_58_11" x="123.135" y="117.172" width="16.9397" height="27.6548" filterUnits="userSpaceOnUse" color-interpolation-filters="sRGB">
<feFlood flood-opacity="0" result="BackgroundImageFix"/>
<feColorMatrix in="SourceAlpha" type="matrix" values="0 0 0 0 0 0 0 0 0 0 0 0 0 0 0 0 0 0 127 0" result="hardAlpha"/>
<feOffset dy="3"/>
<feGaussianBlur stdDeviation="1.5561"/>
<feColorMatrix type="matrix" values="0 0 0 0 0 0 0 0 0 0 0 0 0 0 0 0 0 0 0.0992429 0"/>
<feBlend mode="normal" in2="BackgroundImageFix" result="effect1_dropShadow_58_11"/>
<feColorMatrix in="SourceAlpha" type="matrix" values="0 0 0 0 0 0 0 0 0 0 0 0 0 0 0 0 0 0 127 0" result="hardAlpha"/>
<feOffset dy="7"/>
<feGaussianBlur stdDeviation="3.46102"/>
<feColorMatrix type="matrix" values="0 0 0 0 0 0 0 0 0 0 0 0 0 0 0 0 0 0 0.115479 0"/>
<feBlend mode="normal" in2="effect1_dropShadow_58_11" result="effect2_dropShadow_58_11"/>
<feBlend mode="normal" in="SourceGraphic" in2="effect2_dropShadow_58_11" result="shape"/>
</filter>
<filter id="filter1_dd_58_11" x="37.077" y="42.8776" width="27.4648" height="17.1299" filterUnits="userSpaceOnUse" color-interpolation-filters="sRGB">
<feFlood flood-opacity="0" result="BackgroundImageFix"/>
<feColorMatrix in="SourceAlpha" type="matrix" values="0 0 0 0 0 0 0 0 0 0 0 0 0 0 0 0 0 0 127 0" result="hardAlpha"/>
<feOffset dy="3"/>
<feGaussianBlur stdDeviation="1.5561"/>
<feColorMatrix type="matrix" values="0 0 0 0 0 0 0 0 0 0 0 0 0 0 0 0 0 0 0.0992429 0"/>
<feBlend mode="normal" in2="BackgroundImageFix" result="effect1_dropShadow_58_11"/>
<feColorMatrix in="SourceAlpha" type="matrix" values="0 0 0 0 0 0 0 0 0 0 0 0 0 0 0 0 0 0 127 0" result="hardAlpha"/>
<feOffset dy="7"/>
<feGaussianBlur stdDeviation="3.46102"/>
<feColorMatrix type="matrix" values="0 0 0 0 0 0 0 0 0 0 0 0 0 0 0 0 0 0 0.115479 0"/>
<feBlend mode="normal" in2="effect1_dropShadow_58_11" result="effect2_dropShadow_58_11"/>
<feBlend mode="normal" in="SourceGraphic" in2="effect2_dropShadow_58_11" result="shape"/>
</filter>
<filter id="filter2_bdd_58_11" x="0.237251" y="0.989746" width="177.915" height="176.677" filterUnits="userSpaceOnUse" color-interpolation-filters="sRGB">
<feFlood flood-opacity="0" result="BackgroundImageFix"/>
<feGaussianBlur in="BackgroundImageFix" stdDeviation="10"/>
<feComposite in2="SourceAlpha" operator="in" result="effect1_backgroundBlur_58_11"/>
<feColorMatrix in="SourceAlpha" type="matrix" values="0 0 0 0 0 0 0 0 0 0 0 0 0 0 0 0 0 0 127 0" result="hardAlpha"/>
<feOffset dy="3"/>
<feGaussianBlur stdDeviation="22.5"/>
<feColorMatrix type="matrix" values="0 0 0 0 0 0 0 0 0 0 0 0 0 0 0 0 0 0 0.44 0"/>
<feBlend mode="normal" in2="effect1_backgroundBlur_58_11" result="effect2_dropShadow_58_11"/>
<feColorMatrix in="SourceAlpha" type="matrix" values="0 0 0 0 0 0 0 0 0 0 0 0 0 0 0 0 0 0 127 0" result="hardAlpha"/>
<feOffset dy="7"/>
<feGaussianBlur stdDeviation="3.46102"/>
<feColorMatrix type="matrix" values="0 0 0 0 0 0 0 0 0 0 0 0 0 0 0 0 0 0 0.115479 0"/>
<feBlend mode="normal" in2="effect2_dropShadow_58_11" result="effect3_dropShadow_58_11"/>
<feBlend mode="normal" in="SourceGraphic" in2="effect3_dropShadow_58_11" result="shape"/>
</filter>
<linearGradient id="paint0_linear_58_11" x1="103.125" y1="27.5118" x2="74.9551" y2="153.813" gradientUnits="userSpaceOnUse">
<stop stop-color="#F8CC58"/>
<stop offset="1" stop-color="#F8CC58" stop-opacity="0"/>
</linearGradient>
<linearGradient id="paint1_linear_58_11" x1="150.798" y1="66.5165" x2="43.7599" y2="83.8739" gradientUnits="userSpaceOnUse">
<stop/>
<stop offset="1" stop-opacity="0"/>
</linearGradient>
<linearGradient id="paint2_linear_58_11" x1="147.773" y1="32.9466" x2="91.6994" y2="84.169" gradientUnits="userSpaceOnUse">
<stop stop-color="white"/>
<stop offset="1" stop-color="white" stop-opacity="0"/>
</linearGradient>
</defs>
</svg>
