<svg width="191" height="49" viewBox="0 0 191 49" fill="none" xmlns="http://www.w3.org/2000/svg">
<path d="M0.0595703 10C0.0595703 5.28595 0.0595703 2.92893 1.52404 1.46447C2.9885 0 5.34553 0 10.0596 0H180.06C184.774 0 187.131 0 188.595 1.46447C190.06 2.92893 190.06 5.28595 190.06 10V39C190.06 43.714 190.06 46.0711 188.595 47.5355C187.131 49 184.774 49 180.06 49H10.0596C5.34552 49 2.9885 49 1.52404 47.5355C0.0595703 46.0711 0.0595703 43.714 0.0595703 39V38.0036C0.0595703 36.6487 0.0595703 35.9713 0.333002 35.3755C0.606433 34.7797 1.12007 34.338 2.14733 33.4545L7.2699 29.0491C9.72905 26.9342 10.9586 25.8768 10.9586 24.5C10.9586 23.1232 9.72905 22.0658 7.26991 19.9509L2.14734 15.5455C1.12007 14.662 0.606433 14.2203 0.333002 13.6245C0.0595703 13.0287 0.0595703 12.3513 0.0595703 10.9964V10Z" fill="#201E28"/>
<path d="M0.0595703 10C0.0595703 5.28595 0.0595703 2.92893 1.52404 1.46447C2.9885 0 5.34553 0 10.0596 0H180.06C184.774 0 187.131 0 188.595 1.46447C190.06 2.92893 190.06 5.28595 190.06 10V39C190.06 43.714 190.06 46.0711 188.595 47.5355C187.131 49 184.774 49 180.06 49H10.0596C5.34552 49 2.9885 49 1.52404 47.5355C0.0595703 46.0711 0.0595703 43.714 0.0595703 39V38.0036C0.0595703 36.6487 0.0595703 35.9713 0.333002 35.3755C0.606433 34.7797 1.12007 34.338 2.14733 33.4545L7.2699 29.0491C9.72905 26.9342 10.9586 25.8768 10.9586 24.5C10.9586 23.1232 9.72905 22.0658 7.26991 19.9509L2.14734 15.5455C1.12007 14.662 0.606433 14.2203 0.333002 13.6245C0.0595703 13.0287 0.0595703 12.3513 0.0595703 10.9964V10Z" fill="url(#paint0_linear_52_81)" fill-opacity="0.1"/>
<path d="M0.55957 10C0.55957 7.62884 0.560632 5.90077 0.73817 4.58026C0.913774 3.27414 1.25374 2.44187 1.87759 1.81802C2.50144 1.19417 3.33371 0.854204 4.63983 0.6786C5.96034 0.501062 7.68841 0.5 10.0596 0.5H180.06C182.431 0.5 184.159 0.501062 185.479 0.6786C186.785 0.854204 187.618 1.19417 188.242 1.81802C188.865 2.44187 189.205 3.27414 189.381 4.58026C189.559 5.90077 189.56 7.62884 189.56 10V39C189.56 41.3712 189.559 43.0992 189.381 44.4197C189.205 45.7259 188.865 46.5581 188.242 47.182C187.618 47.8058 186.785 48.1458 185.479 48.3214C184.159 48.4989 182.431 48.5 180.06 48.5H10.0596C7.68841 48.5 5.96034 48.4989 4.63983 48.3214C3.33371 48.1458 2.50144 47.8058 1.87759 47.182C1.25374 46.5581 0.913774 45.7259 0.73817 44.4197C0.560632 43.0992 0.55957 41.3712 0.55957 39V38.0036C0.55957 36.6031 0.570223 36.0573 0.78743 35.584C1.00464 35.1108 1.41148 34.7468 2.47335 33.8336L7.59592 29.4282L7.62705 29.4014C8.83025 28.3667 9.77425 27.5549 10.4123 26.8275C11.0652 26.0833 11.4586 25.361 11.4586 24.5C11.4586 23.639 11.0652 22.9167 10.4123 22.1725C9.77425 21.4451 8.83024 20.6333 7.62702 19.5985L7.59593 19.5718L2.47336 15.1664C1.41148 14.2532 1.00464 13.8892 0.78743 13.416C0.570223 12.9427 0.55957 12.3969 0.55957 10.9964V10Z" stroke="url(#paint1_linear_52_81)" stroke-opacity="0.3"/>
<path d="M56.6196 26.26V22.74C56.6196 21.9667 56.6196 21.3333 56.6196 20.84C56.6196 20.3467 56.6196 19.9533 56.6196 19.66C56.6196 19.3533 56.6129 19.1133 56.5996 18.94C56.5996 18.7533 56.5929 18.58 56.5796 18.42C56.5529 18.0733 56.4862 17.8133 56.3796 17.64C56.2729 17.4667 56.0529 17.3467 55.7196 17.28C55.6396 17.2533 55.5262 17.24 55.3796 17.24C55.2462 17.2267 55.1329 17.22 55.0396 17.22C54.9329 17.22 54.8796 17.18 54.8796 17.1C54.8796 16.9933 54.9862 16.94 55.1996 16.94C55.4262 16.94 55.6596 16.9467 55.8996 16.96C56.1529 16.96 56.3862 16.9667 56.5996 16.98C56.8262 16.98 57.0129 16.9867 57.1596 17C57.3196 17 57.4196 17 57.4596 17C57.6862 17 58.0462 16.9933 58.5396 16.98C59.0329 16.9533 59.5129 16.94 59.9796 16.94C60.6062 16.94 61.1329 16.9867 61.5596 17.08C61.9996 17.1733 62.3662 17.28 62.6596 17.4C62.9529 17.52 63.1796 17.6467 63.3396 17.78C63.4996 17.9 63.6196 18 63.6996 18.08C63.9262 18.2933 64.1462 18.6133 64.3596 19.04C64.5862 19.4533 64.6996 19.9267 64.6996 20.46C64.6996 21.1667 64.5729 21.8133 64.3196 22.4C64.0796 22.9867 63.7396 23.4933 63.2996 23.92C62.8596 24.3333 62.3396 24.6533 61.7396 24.88C61.1396 25.1067 60.4862 25.22 59.7796 25.22C59.7262 25.22 59.6529 25.22 59.5596 25.22C59.4796 25.22 59.4129 25.2133 59.3596 25.2C59.3062 25.2 59.2529 25.1933 59.1996 25.18C59.1596 25.1533 59.1396 25.1133 59.1396 25.06C59.1396 24.98 59.1729 24.9333 59.2396 24.92C59.3196 24.8933 59.4662 24.88 59.6796 24.88C60.1596 24.88 60.6129 24.8 61.0396 24.64C61.4662 24.4667 61.8329 24.2333 62.1396 23.94C62.4462 23.6467 62.6862 23.3067 62.8596 22.92C63.0462 22.52 63.1396 22.0867 63.1396 21.62C63.1396 21.46 63.1262 21.26 63.0996 21.02C63.0862 20.78 63.0396 20.52 62.9596 20.24C62.8929 19.96 62.7862 19.6733 62.6396 19.38C62.4929 19.0867 62.2862 18.8067 62.0196 18.54C61.7529 18.2733 61.4796 18.0733 61.1996 17.94C60.9329 17.7933 60.6729 17.6933 60.4196 17.64C60.1796 17.5733 59.9596 17.54 59.7596 17.54C59.5596 17.54 59.3996 17.54 59.2796 17.54C59.1062 17.54 58.9396 17.5533 58.7796 17.58C58.6329 17.5933 58.5129 17.62 58.4196 17.66C58.3129 17.7 58.2596 17.8267 58.2596 18.04V26.26C58.2596 27.22 58.2596 28.08 58.2596 28.84C58.2729 29.5867 58.3062 30.1733 58.3596 30.6C58.3862 30.8933 58.4462 31.14 58.5396 31.34C58.6329 31.54 58.8329 31.66 59.1396 31.7C59.2862 31.7267 59.4462 31.7467 59.6196 31.76C59.8062 31.7733 59.9462 31.78 60.0396 31.78C60.1462 31.78 60.1996 31.82 60.1996 31.9C60.1996 32.0067 60.0929 32.06 59.8796 32.06C59.5996 32.06 59.3196 32.0533 59.0396 32.04C58.7596 32.04 58.4996 32.0333 58.2596 32.02C58.0329 32.02 57.8396 32.0133 57.6796 32C57.5329 32 57.4462 32 57.4196 32C57.4062 32 57.3262 32 57.1796 32C57.0329 32.0133 56.8596 32.02 56.6596 32.02C56.4596 32.0333 56.2529 32.04 56.0396 32.04C55.8262 32.0533 55.6462 32.06 55.4996 32.06C55.2862 32.06 55.1796 32.0067 55.1796 31.9C55.1796 31.82 55.2329 31.78 55.3396 31.78C55.4329 31.78 55.5329 31.7733 55.6396 31.76C55.7462 31.7467 55.8462 31.7267 55.9396 31.7C56.1396 31.66 56.2729 31.54 56.3396 31.34C56.4196 31.14 56.4796 30.8933 56.5196 30.6C56.5729 30.1733 56.5996 29.5867 56.5996 28.84C56.6129 28.08 56.6196 27.22 56.6196 26.26ZM69.4516 26.26V22.74C69.4516 21.9667 69.4516 21.3333 69.4516 20.84C69.4516 20.3467 69.4516 19.9533 69.4516 19.66C69.4516 19.3533 69.4449 19.1133 69.4316 18.94C69.4316 18.7533 69.4249 18.58 69.4116 18.42C69.3849 18.0733 69.3183 17.8133 69.2116 17.64C69.1049 17.4667 68.8849 17.3467 68.5516 17.28C68.4716 17.2533 68.3583 17.24 68.2116 17.24C68.0783 17.2267 67.9649 17.22 67.8716 17.22C67.7649 17.22 67.7116 17.18 67.7116 17.1C67.7116 16.9933 67.8183 16.94 68.0316 16.94C68.2583 16.94 68.4983 16.9467 68.7516 16.96C69.0049 16.96 69.2383 16.9667 69.4516 16.98C69.6783 16.98 69.8649 16.9867 70.0116 17C70.1716 17 70.2649 17 70.2916 17C70.3449 17 70.4649 17 70.6516 17C70.8516 16.9867 71.0716 16.98 71.3116 16.98C71.5649 16.9667 71.8116 16.96 72.0516 16.96C72.2916 16.9467 72.4916 16.94 72.6516 16.94C73.2916 16.94 73.9249 16.9933 74.5516 17.1C75.1916 17.1933 75.7783 17.4333 76.3116 17.82C76.4316 17.9133 76.5716 18.0467 76.7316 18.22C76.8916 18.38 77.0383 18.5733 77.1716 18.8C77.3183 19.0267 77.4383 19.2867 77.5316 19.58C77.6383 19.8733 77.6916 20.1933 77.6916 20.54C77.6916 21.2867 77.5116 22.04 77.1516 22.8C76.7916 23.5467 76.1649 24.3333 75.2716 25.16C76.0983 26.2133 76.8516 27.1733 77.5316 28.04C78.2116 28.9067 78.8449 29.6533 79.4316 30.28C79.9783 30.8533 80.4583 31.2267 80.8716 31.4C81.2849 31.5733 81.6183 31.68 81.8716 31.72C82.0583 31.7467 82.2183 31.7667 82.3516 31.78C82.4849 31.78 82.5849 31.78 82.6516 31.78C82.7716 31.78 82.8316 31.82 82.8316 31.9C82.8316 31.9667 82.7983 32.0067 82.7316 32.02C82.6649 32.0467 82.5383 32.06 82.3516 32.06H80.9316C80.3716 32.06 79.9383 32.0333 79.6316 31.98C79.3249 31.9267 79.0449 31.8267 78.7916 31.68C78.3649 31.4533 77.9516 31.1 77.5516 30.62C77.1516 30.1267 76.6649 29.5 76.0916 28.74C75.8783 28.46 75.6649 28.1733 75.4516 27.88C75.2383 27.5867 75.0316 27.3067 74.8316 27.04C74.6449 26.7733 74.4649 26.5333 74.2916 26.32C74.1316 26.0933 74.0049 25.9133 73.9116 25.78C73.8316 25.7 73.7449 25.66 73.6516 25.66L71.1916 25.62C71.0983 25.62 71.0516 25.6733 71.0516 25.78V26.26C71.0516 27.22 71.0516 28.08 71.0516 28.84C71.0649 29.5867 71.0983 30.1733 71.1516 30.6C71.1783 30.8933 71.2383 31.14 71.3316 31.34C71.4249 31.54 71.6249 31.66 71.9316 31.7C72.0783 31.7267 72.2383 31.7467 72.4116 31.76C72.5983 31.7733 72.7383 31.78 72.8316 31.78C72.9383 31.78 72.9916 31.82 72.9916 31.9C72.9916 32.0067 72.8849 32.06 72.6716 32.06C72.3916 32.06 72.1116 32.0533 71.8316 32.04C71.5516 32.04 71.2916 32.0333 71.0516 32.02C70.8249 32.02 70.6316 32.0133 70.4716 32C70.3249 32 70.2383 32 70.2116 32C70.2116 32 70.1383 32 69.9916 32C69.8583 32.0133 69.6916 32.02 69.4916 32.02C69.2916 32.0333 69.0849 32.04 68.8716 32.04C68.6583 32.0533 68.4783 32.06 68.3316 32.06C68.1183 32.06 68.0116 32.0067 68.0116 31.9C68.0116 31.82 68.0649 31.78 68.1716 31.78C68.2649 31.78 68.3649 31.7733 68.4716 31.76C68.5783 31.7467 68.6783 31.7267 68.7716 31.7C68.9716 31.66 69.1049 31.54 69.1716 31.34C69.2516 31.14 69.3116 30.8933 69.3516 30.6C69.4049 30.1733 69.4316 29.5867 69.4316 28.84C69.4449 28.08 69.4516 27.22 69.4516 26.26ZM71.0516 17.94V24.48C71.0516 24.5867 71.0983 24.6667 71.1916 24.72C71.3383 24.8133 71.6116 24.8933 72.0116 24.96C72.4249 25.0133 72.8516 25.04 73.2916 25.04C73.5316 25.04 73.7849 25.02 74.0516 24.98C74.3183 24.9267 74.5649 24.82 74.7916 24.66C75.1383 24.42 75.4249 24.04 75.6516 23.52C75.8916 22.9867 76.0116 22.34 76.0116 21.58C76.0116 20.3267 75.7049 19.3467 75.0916 18.64C74.4783 17.9333 73.6316 17.58 72.5516 17.58C72.2449 17.58 71.9716 17.5933 71.7316 17.62C71.4916 17.6467 71.3183 17.6733 71.2116 17.7C71.1049 17.74 71.0516 17.82 71.0516 17.94ZM82.5427 24.48C82.5427 23.9467 82.6094 23.38 82.7427 22.78C82.876 22.18 83.0827 21.5933 83.3627 21.02C83.6427 20.4333 83.9894 19.88 84.4027 19.36C84.8294 18.8267 85.336 18.36 85.9227 17.96C86.5094 17.56 87.176 17.2467 87.9227 17.02C88.6694 16.78 89.5027 16.66 90.4227 16.66C91.5427 16.66 92.5827 16.8333 93.5427 17.18C94.5027 17.5267 95.3294 18.0267 96.0227 18.68C96.7294 19.32 97.2827 20.1067 97.6827 21.04C98.0827 21.96 98.2827 23 98.2827 24.16C98.2827 25.28 98.0894 26.34 97.7027 27.34C97.3294 28.3267 96.796 29.1933 96.1027 29.94C95.4094 30.6733 94.5694 31.26 93.5827 31.7C92.596 32.1267 91.5027 32.34 90.3027 32.34C88.9294 32.34 87.7494 32.1 86.7627 31.62C85.7894 31.14 84.9894 30.52 84.3627 29.76C83.736 29 83.276 28.16 82.9827 27.24C82.6894 26.3067 82.5427 25.3867 82.5427 24.48ZM84.4427 23.92C84.4427 25.08 84.6027 26.1333 84.9227 27.08C85.256 28.0267 85.7094 28.8333 86.2827 29.5C86.8694 30.1667 87.5494 30.68 88.3227 31.04C89.096 31.4 89.936 31.58 90.8427 31.58C91.296 31.58 91.836 31.5 92.4627 31.34C93.0894 31.1667 93.6894 30.8333 94.2627 30.34C94.8494 29.8467 95.3427 29.1533 95.7427 28.26C96.156 27.3533 96.3627 26.1733 96.3627 24.72C96.3627 23.52 96.1894 22.46 95.8427 21.54C95.5094 20.62 95.0627 19.8533 94.5027 19.24C93.9427 18.6133 93.296 18.14 92.5627 17.82C91.8294 17.5 91.0694 17.34 90.2827 17.34C89.4427 17.34 88.6627 17.48 87.9427 17.76C87.236 18.0267 86.6227 18.44 86.1027 19C85.5827 19.5467 85.176 20.2333 84.8827 21.06C84.5894 21.8733 84.4427 22.8267 84.4427 23.92ZM102.518 26.26V22.74C102.518 21.9667 102.518 21.3333 102.518 20.84C102.518 20.3467 102.518 19.9533 102.518 19.66C102.518 19.3533 102.511 19.1133 102.498 18.94C102.498 18.7533 102.491 18.58 102.478 18.42C102.451 18.0733 102.385 17.8133 102.278 17.64C102.171 17.4667 101.951 17.3467 101.618 17.28C101.538 17.2533 101.425 17.24 101.278 17.24C101.145 17.2267 101.031 17.22 100.938 17.22C100.831 17.22 100.778 17.18 100.778 17.1C100.778 16.9933 100.885 16.94 101.098 16.94C101.325 16.94 101.565 16.9467 101.818 16.96C102.071 16.96 102.305 16.9667 102.518 16.98C102.745 16.98 102.931 16.9867 103.078 17C103.238 17 103.331 17 103.358 17C103.598 17 103.905 16.9933 104.278 16.98C104.651 16.9533 105.071 16.94 105.538 16.94C106.351 16.94 107.018 17.0533 107.538 17.28C108.058 17.4933 108.465 17.76 108.758 18.08C109.065 18.3867 109.271 18.7133 109.378 19.06C109.485 19.3933 109.538 19.6867 109.538 19.94C109.538 20.3533 109.485 20.7267 109.378 21.06C109.271 21.3933 109.125 21.7067 108.938 22C108.765 22.28 108.565 22.5467 108.338 22.8C108.125 23.0533 107.898 23.3 107.658 23.54C108.031 23.66 108.418 23.84 108.818 24.08C109.231 24.3067 109.605 24.6 109.938 24.96C110.285 25.3067 110.565 25.7133 110.778 26.18C111.005 26.6467 111.118 27.1733 111.118 27.76C111.118 28.2933 111.011 28.82 110.798 29.34C110.585 29.86 110.265 30.3267 109.838 30.74C109.425 31.1533 108.898 31.4867 108.258 31.74C107.618 31.9933 106.871 32.12 106.018 32.12C105.911 32.12 105.718 32.1133 105.438 32.1C105.158 32.0867 104.871 32.0733 104.578 32.06C104.285 32.0333 104.018 32.0133 103.778 32C103.538 32 103.398 32 103.358 32C103.331 32 103.245 32 103.098 32C102.951 32 102.771 32.0067 102.558 32.02C102.358 32.02 102.151 32.0267 101.938 32.04C101.725 32.0533 101.545 32.06 101.398 32.06C101.185 32.06 101.078 32.0067 101.078 31.9C101.078 31.82 101.131 31.78 101.238 31.78C101.331 31.78 101.431 31.7733 101.538 31.76C101.645 31.7467 101.745 31.7267 101.838 31.7C102.038 31.66 102.171 31.54 102.238 31.34C102.318 31.14 102.378 30.8933 102.418 30.6C102.471 30.1733 102.498 29.5867 102.498 28.84C102.511 28.08 102.518 27.22 102.518 26.26ZM104.118 17.82V23.18C104.118 23.2867 104.165 23.36 104.258 23.4C104.325 23.4133 104.451 23.4333 104.638 23.46C104.825 23.4733 105.105 23.48 105.478 23.48C105.758 23.48 105.991 23.48 106.178 23.48C106.365 23.4667 106.518 23.44 106.638 23.4C106.771 23.36 106.885 23.3067 106.978 23.24C107.085 23.1733 107.191 23.08 107.298 22.96C107.511 22.72 107.685 22.4267 107.818 22.08C107.951 21.7333 108.018 21.3533 108.018 20.94C108.018 20.5267 107.965 20.1133 107.858 19.7C107.765 19.2867 107.611 18.92 107.398 18.6C107.185 18.2667 106.905 18 106.558 17.8C106.225 17.6 105.811 17.5 105.318 17.5C105.211 17.5 105.065 17.5067 104.878 17.52C104.691 17.5333 104.518 17.56 104.358 17.6C104.198 17.64 104.118 17.7133 104.118 17.82ZM104.118 24.16V25.3C104.118 25.6867 104.118 26.1133 104.118 26.58C104.118 27.0467 104.118 27.4933 104.118 27.92C104.118 28.3467 104.118 28.72 104.118 29.04C104.131 29.3467 104.138 29.54 104.138 29.62C104.151 29.86 104.165 30.0667 104.178 30.24C104.191 30.4 104.218 30.54 104.258 30.66C104.311 30.7667 104.378 30.86 104.458 30.94C104.538 31.02 104.658 31.1 104.818 31.18C104.951 31.2467 105.098 31.3 105.258 31.34C105.431 31.38 105.598 31.4133 105.758 31.44C105.931 31.4533 106.085 31.4667 106.218 31.48C106.365 31.48 106.485 31.48 106.578 31.48C106.845 31.48 107.138 31.44 107.458 31.36C107.791 31.2667 108.098 31.1133 108.378 30.9C108.671 30.6867 108.911 30.4 109.098 30.04C109.298 29.6667 109.398 29.2 109.398 28.64C109.398 28.3467 109.365 28.02 109.298 27.66C109.245 27.3 109.145 26.94 108.998 26.58C108.851 26.22 108.651 25.8733 108.398 25.54C108.158 25.2067 107.845 24.9067 107.458 24.64C107.111 24.4133 106.805 24.2667 106.538 24.2C106.285 24.1333 106.038 24.0867 105.798 24.06C105.731 24.0467 105.625 24.04 105.478 24.04C105.345 24.0267 105.198 24.02 105.038 24.02C104.878 24.02 104.725 24.02 104.578 24.02C104.431 24.02 104.318 24.02 104.238 24.02C104.158 24.02 104.118 24.0667 104.118 24.16ZM117.928 22.74V26.3C117.928 27.7667 117.955 28.8533 118.008 29.56C118.062 30.2667 118.182 30.7067 118.368 30.88C118.448 30.96 118.542 31.0333 118.648 31.1C118.768 31.1533 118.915 31.2 119.088 31.24C119.275 31.2667 119.502 31.2933 119.768 31.32C120.048 31.3333 120.382 31.34 120.768 31.34C121.302 31.34 121.775 31.3133 122.188 31.26C122.615 31.2067 122.948 31.0333 123.188 30.74C123.322 30.58 123.435 30.3867 123.528 30.16C123.622 29.9333 123.682 29.7267 123.708 29.54C123.735 29.3667 123.795 29.28 123.888 29.28C123.968 29.28 124.008 29.38 124.008 29.58C124.008 29.6333 124.002 29.74 123.988 29.9C123.975 30.06 123.948 30.24 123.908 30.44C123.882 30.64 123.848 30.8467 123.808 31.06C123.782 31.26 123.748 31.4333 123.708 31.58C123.668 31.7 123.628 31.7933 123.588 31.86C123.562 31.9267 123.508 31.98 123.428 32.02C123.348 32.06 123.228 32.0867 123.068 32.1C122.922 32.1133 122.715 32.12 122.448 32.12C121.728 32.12 121.102 32.1133 120.568 32.1C120.035 32.0867 119.555 32.0733 119.128 32.06C118.702 32.0333 118.328 32.0133 118.008 32C117.688 32 117.382 32 117.088 32C117.048 32 116.948 32 116.788 32C116.642 32.0133 116.468 32.02 116.268 32.02C116.068 32.0333 115.862 32.04 115.648 32.04C115.448 32.0533 115.275 32.06 115.128 32.06C114.915 32.06 114.808 32.0067 114.808 31.9C114.808 31.82 114.862 31.78 114.968 31.78C115.062 31.78 115.162 31.7733 115.268 31.76C115.375 31.7467 115.475 31.7267 115.568 31.7C115.768 31.66 115.902 31.54 115.968 31.34C116.048 31.14 116.108 30.8933 116.148 30.6C116.202 30.1733 116.228 29.5867 116.228 28.84C116.242 28.08 116.248 27.22 116.248 26.26V22.74C116.248 21.9667 116.248 21.3333 116.248 20.84C116.248 20.3467 116.248 19.9533 116.248 19.66C116.248 19.3533 116.242 19.1133 116.228 18.94C116.228 18.7533 116.222 18.58 116.208 18.42C116.182 18.0733 116.115 17.8133 116.008 17.64C115.902 17.4667 115.682 17.3467 115.348 17.28C115.268 17.2533 115.155 17.24 115.008 17.24C114.875 17.2267 114.762 17.22 114.668 17.22C114.562 17.22 114.508 17.18 114.508 17.1C114.508 16.9933 114.615 16.94 114.828 16.94C115.055 16.94 115.295 16.9467 115.548 16.96C115.802 16.96 116.035 16.9667 116.248 16.98C116.475 16.98 116.662 16.9867 116.808 17C116.968 17 117.062 17 117.088 17C117.115 17 117.215 17 117.388 17C117.562 16.9867 117.762 16.98 117.988 16.98C118.215 16.9667 118.442 16.96 118.668 16.96C118.908 16.9467 119.102 16.94 119.248 16.94C119.462 16.94 119.568 16.9933 119.568 17.1C119.568 17.18 119.515 17.22 119.408 17.22C119.342 17.22 119.242 17.2267 119.108 17.24C118.988 17.24 118.868 17.2533 118.748 17.28C118.455 17.3333 118.255 17.4533 118.148 17.64C118.055 17.8133 117.995 18.0733 117.968 18.42C117.955 18.58 117.942 18.7533 117.928 18.94C117.928 19.1133 117.928 19.3533 117.928 19.66C117.928 19.9533 117.928 20.3467 117.928 20.84C117.928 21.3333 117.928 21.9667 117.928 22.74ZM128.084 26.26V22.74C128.084 21.9667 128.084 21.3333 128.084 20.84C128.084 20.3467 128.084 19.9533 128.084 19.66C128.084 19.3533 128.078 19.1133 128.064 18.94C128.064 18.7533 128.058 18.58 128.044 18.42C128.018 18.0733 127.951 17.8133 127.844 17.64C127.738 17.4667 127.518 17.3467 127.184 17.28C127.104 17.2533 126.991 17.24 126.844 17.24C126.711 17.2267 126.598 17.22 126.504 17.22C126.398 17.22 126.344 17.18 126.344 17.1C126.344 16.9933 126.451 16.94 126.664 16.94C126.891 16.94 127.131 16.94 127.384 16.94C127.638 16.94 127.878 16.9467 128.104 16.96L128.924 17C128.964 17 129.198 17 129.624 17C130.064 17 130.551 17 131.084 17C131.631 17 132.138 17 132.604 17C133.084 16.9867 133.384 16.98 133.504 16.98C133.891 16.9533 134.178 16.92 134.364 16.88C134.418 16.8667 134.464 16.8467 134.504 16.82C134.544 16.7933 134.591 16.78 134.644 16.78C134.698 16.78 134.724 16.84 134.724 16.96C134.724 17.0267 134.704 17.1333 134.664 17.28C134.624 17.4133 134.591 17.62 134.564 17.9C134.564 17.9533 134.558 18.04 134.544 18.16C134.544 18.28 134.538 18.4133 134.524 18.56C134.511 18.6933 134.498 18.8267 134.484 18.96C134.484 19.08 134.478 19.1667 134.464 19.22C134.451 19.2733 134.431 19.3267 134.404 19.38C134.391 19.42 134.364 19.44 134.324 19.44C134.218 19.44 134.164 19.3533 134.164 19.18C134.164 19.1133 134.158 19.0067 134.144 18.86C134.131 18.7133 134.098 18.58 134.044 18.46C133.978 18.3 133.858 18.1667 133.684 18.06C133.511 17.94 133.158 17.8467 132.624 17.78C132.544 17.7667 132.364 17.76 132.084 17.76C131.804 17.7467 131.511 17.74 131.204 17.74C130.898 17.7267 130.611 17.72 130.344 17.72C130.091 17.72 129.938 17.72 129.884 17.72C129.804 17.72 129.764 17.7867 129.764 17.92V23.44C129.764 23.5733 129.804 23.64 129.884 23.64C129.951 23.64 130.131 23.64 130.424 23.64C130.718 23.64 131.038 23.64 131.384 23.64C131.744 23.64 132.084 23.64 132.404 23.64C132.724 23.6267 132.944 23.6133 133.064 23.6C133.304 23.5733 133.498 23.5467 133.644 23.52C133.791 23.4933 133.911 23.4267 134.004 23.32C134.151 23.1467 134.251 23.06 134.304 23.06C134.371 23.06 134.404 23.1133 134.404 23.22C134.404 23.2867 134.384 23.4067 134.344 23.58C134.304 23.7533 134.271 24.0067 134.244 24.34C134.231 24.4467 134.218 24.5667 134.204 24.7C134.204 24.82 134.198 24.9467 134.184 25.08C134.184 25.2 134.178 25.3133 134.164 25.42C134.164 25.5133 134.164 25.58 134.164 25.62C134.164 25.7 134.158 25.7867 134.144 25.88C134.131 25.96 134.091 26 134.024 26C133.931 26 133.884 25.94 133.884 25.82C133.884 25.7133 133.878 25.6133 133.864 25.52C133.864 25.4133 133.844 25.2933 133.804 25.16C133.764 25.0133 133.678 24.8733 133.544 24.74C133.411 24.5933 133.151 24.5 132.764 24.46C132.631 24.4467 132.418 24.4333 132.124 24.42C131.844 24.4067 131.551 24.4 131.244 24.4C130.951 24.3867 130.671 24.38 130.404 24.38C130.151 24.3667 129.984 24.36 129.904 24.36C129.811 24.36 129.764 24.4067 129.764 24.5V26.26C129.764 26.4333 129.764 26.6867 129.764 27.02C129.764 27.3533 129.764 27.7 129.764 28.06C129.764 28.42 129.764 28.7533 129.764 29.06C129.764 29.3667 129.764 29.5733 129.764 29.68C129.778 30.0267 129.811 30.3067 129.864 30.52C129.931 30.7333 130.044 30.9 130.204 31.02C130.378 31.14 130.611 31.22 130.904 31.26C131.198 31.3 131.591 31.32 132.084 31.32C132.351 31.32 132.671 31.3133 133.044 31.3C133.418 31.2733 133.738 31.2067 134.004 31.1C134.271 30.9933 134.471 30.8333 134.604 30.62C134.738 30.3933 134.838 30.0733 134.904 29.66C134.944 29.46 135.004 29.36 135.084 29.36C135.151 29.36 135.184 29.3933 135.184 29.46C135.198 29.5267 135.204 29.5933 135.204 29.66C135.204 29.7 135.191 29.8067 135.164 29.98C135.151 30.14 135.131 30.3267 135.104 30.54C135.078 30.74 135.051 30.94 135.024 31.14C134.998 31.34 134.971 31.4933 134.944 31.6C134.904 31.7333 134.864 31.8333 134.824 31.9C134.784 31.9667 134.724 32.0133 134.644 32.04C134.564 32.08 134.464 32.1 134.344 32.1C134.224 32.1133 134.064 32.12 133.864 32.12C133.104 32.12 132.444 32.1133 131.884 32.1C131.338 32.0867 130.871 32.0733 130.484 32.06C130.098 32.0333 129.778 32.0133 129.524 32C129.271 32 129.071 32 128.924 32C128.898 32 128.811 32 128.664 32C128.518 32 128.338 32.0067 128.124 32.02C127.924 32.02 127.718 32.0267 127.504 32.04C127.291 32.0533 127.111 32.06 126.964 32.06C126.751 32.06 126.644 32.0067 126.644 31.9C126.644 31.82 126.698 31.78 126.804 31.78C126.898 31.78 126.998 31.7733 127.104 31.76C127.211 31.7467 127.311 31.7267 127.404 31.7C127.604 31.66 127.738 31.54 127.804 31.34C127.884 31.14 127.944 30.8933 127.984 30.6C128.038 30.1733 128.064 29.5867 128.064 28.84C128.078 28.08 128.084 27.22 128.084 26.26ZM153.831 17.2L155.171 29.48C155.185 29.6667 155.211 29.8667 155.251 30.08C155.291 30.2933 155.345 30.5 155.411 30.7C155.491 30.9 155.598 31.0867 155.731 31.26C155.865 31.42 156.038 31.5333 156.251 31.6C156.545 31.6933 156.805 31.7467 157.031 31.76C157.271 31.7733 157.445 31.78 157.551 31.78C157.658 31.78 157.711 31.8133 157.711 31.88C157.711 31.9467 157.671 31.9933 157.591 32.02C157.511 32.0467 157.411 32.06 157.291 32.06C157.185 32.06 156.985 32.0533 156.691 32.04C156.398 32.04 156.078 32.0333 155.731 32.02C155.385 32.0067 155.045 31.9933 154.711 31.98C154.391 31.9667 154.138 31.9533 153.951 31.94C153.725 31.9133 153.571 31.8867 153.491 31.86C153.425 31.8333 153.391 31.7933 153.391 31.74C153.391 31.66 153.438 31.6133 153.531 31.6C153.585 31.5867 153.618 31.5133 153.631 31.38C153.645 31.2333 153.638 31.0667 153.611 30.88L152.651 20.56H152.591L147.691 30.96C147.478 31.4 147.338 31.6867 147.271 31.82C147.205 31.9533 147.125 32.02 147.031 32.02C146.965 32.02 146.891 31.96 146.811 31.84C146.731 31.7067 146.598 31.46 146.411 31.1C146.278 30.86 146.085 30.4933 145.831 30C145.591 29.4933 145.345 28.9867 145.091 28.48C144.838 27.9733 144.611 27.5267 144.411 27.14C144.211 26.74 144.098 26.5133 144.071 26.46C144.045 26.4067 143.965 26.24 143.831 25.96C143.698 25.68 143.538 25.3467 143.351 24.96C143.165 24.56 142.965 24.1333 142.751 23.68C142.551 23.2267 142.358 22.8 142.171 22.4C141.985 22 141.825 21.6533 141.691 21.36C141.558 21.0533 141.471 20.8533 141.431 20.76H141.351L140.551 30.04C140.538 30.2 140.531 30.3667 140.531 30.54C140.531 30.7133 140.531 30.8867 140.531 31.06C140.531 31.2067 140.578 31.34 140.671 31.46C140.778 31.58 140.905 31.6533 141.051 31.68C141.225 31.72 141.378 31.7467 141.511 31.76C141.645 31.7733 141.745 31.78 141.811 31.78C141.918 31.78 141.971 31.8133 141.971 31.88C141.971 32 141.851 32.06 141.611 32.06C141.425 32.06 141.231 32.0533 141.031 32.04C140.831 32.04 140.638 32.0333 140.451 32.02C140.278 32.02 140.125 32.0133 139.991 32C139.871 32 139.791 32 139.751 32C139.711 32 139.625 32 139.491 32C139.358 32.0133 139.205 32.02 139.031 32.02C138.871 32.0333 138.705 32.04 138.531 32.04C138.358 32.0533 138.205 32.06 138.071 32.06C137.845 32.06 137.731 32 137.731 31.88C137.731 31.8133 137.798 31.78 137.931 31.78C138.011 31.78 138.091 31.78 138.171 31.78C138.265 31.7667 138.385 31.7467 138.531 31.72C138.865 31.6533 139.071 31.46 139.151 31.14C139.231 30.8067 139.291 30.4467 139.331 30.06L140.771 17.02C140.798 16.78 140.871 16.66 140.991 16.66C141.098 16.66 141.198 16.76 141.291 16.96L147.411 29.54L153.291 16.98C153.385 16.7667 153.485 16.66 153.591 16.66C153.711 16.66 153.791 16.84 153.831 17.2ZM160.018 29.86L164.558 17.44C164.678 17.1067 164.765 16.8933 164.818 16.8C164.871 16.7067 164.931 16.66 164.998 16.66C165.065 16.66 165.125 16.7067 165.178 16.8C165.231 16.88 165.318 17.0733 165.438 17.38C165.491 17.5 165.611 17.8133 165.798 18.32C165.998 18.8267 166.231 19.4467 166.498 20.18C166.778 20.9 167.085 21.6933 167.418 22.56C167.751 23.4267 168.078 24.2867 168.398 25.14C168.731 25.98 169.045 26.78 169.338 27.54C169.645 28.3 169.898 28.9333 170.098 29.44C170.271 29.88 170.438 30.24 170.598 30.52C170.771 30.8 170.925 31.02 171.058 31.18C171.205 31.34 171.338 31.4533 171.458 31.52C171.591 31.5867 171.711 31.6333 171.818 31.66C171.965 31.7133 172.105 31.7467 172.238 31.76C172.385 31.7733 172.511 31.78 172.618 31.78C172.751 31.78 172.818 31.82 172.818 31.9C172.818 31.9667 172.778 32.0067 172.698 32.02C172.618 32.0467 172.525 32.06 172.418 32.06C172.338 32.06 172.191 32.06 171.978 32.06C171.778 32.06 171.531 32.06 171.238 32.06C170.958 32.06 170.645 32.0533 170.298 32.04C169.965 32.04 169.625 32.0333 169.278 32.02C169.091 32.0067 168.945 32 168.838 32C168.731 31.9867 168.678 31.9467 168.678 31.88C168.678 31.8133 168.725 31.7667 168.818 31.74C168.885 31.7133 168.938 31.66 168.978 31.58C169.018 31.4867 169.005 31.36 168.938 31.2L167.078 26.28C167.038 26.2 166.978 26.16 166.898 26.16H162.598C162.505 26.16 162.438 26.2133 162.398 26.32L161.198 29.86C161.011 30.38 160.918 30.8267 160.918 31.2C160.918 31.4 160.998 31.5467 161.158 31.64C161.331 31.7333 161.505 31.78 161.678 31.78H161.878C162.011 31.78 162.078 31.82 162.078 31.9C162.078 32.0067 161.978 32.06 161.778 32.06C161.658 32.06 161.518 32.0533 161.358 32.04C161.198 32.04 161.045 32.0333 160.898 32.02C160.751 32.02 160.611 32.0133 160.478 32C160.358 32 160.271 32 160.218 32C160.165 32 160.058 32 159.898 32C159.751 32.0133 159.571 32.02 159.358 32.02C159.145 32.0333 158.918 32.04 158.678 32.04C158.438 32.0533 158.198 32.06 157.958 32.06C157.705 32.06 157.578 32.0067 157.578 31.9C157.578 31.82 157.638 31.78 157.758 31.78C157.825 31.78 157.918 31.78 158.038 31.78C158.158 31.7667 158.258 31.7533 158.338 31.74C158.805 31.6733 159.151 31.4733 159.378 31.14C159.618 30.7933 159.831 30.3667 160.018 29.86ZM162.818 25.44H166.638C166.718 25.44 166.745 25.3933 166.718 25.3L164.818 19.9C164.711 19.6067 164.611 19.6067 164.518 19.9L162.758 25.3C162.718 25.3933 162.738 25.44 162.818 25.44Z" fill="white"/>
<g clip-path="url(#clip0_52_81)">
<path fill-rule="evenodd" clip-rule="evenodd" d="M30.9079 24.5001L26.6087 20.201L29.2604 17.5493L33.5596 21.8485L37.8588 17.5493L40.5104 20.201L36.2112 24.5001L40.5104 28.7993L37.8588 31.4509L33.5596 27.1518L29.2604 31.4509L26.6087 28.7993L30.9079 24.5001Z" fill="url(#paint2_radial_52_81)"/>
</g>
<defs>
<linearGradient id="paint0_linear_52_81" x1="206.06" y1="-17.5" x2="68.5595" y2="79" gradientUnits="userSpaceOnUse">
<stop stop-color="white"/>
<stop offset="1" stop-color="white" stop-opacity="0"/>
</linearGradient>
<linearGradient id="paint1_linear_52_81" x1="101.06" y1="-76.5" x2="95.0596" y2="46" gradientUnits="userSpaceOnUse">
<stop stop-color="white"/>
<stop offset="1" stop-color="white" stop-opacity="0"/>
</linearGradient>
<radialGradient id="paint2_radial_52_81" cx="0" cy="0" r="1" gradientUnits="userSpaceOnUse" gradientTransform="translate(33.5596 24.5001) rotate(90) scale(6.95081 6.95082)">
<stop offset="0.229167" stop-color="#F66350"/>
<stop offset="1" stop-color="#F66350" stop-opacity="0.55"/>
</radialGradient>
<clipPath id="clip0_52_81">
<rect width="15" height="15" fill="white" transform="translate(26.0596 17)"/>
</clipPath>
</defs>
</svg>
