<svg width="204" height="64" viewBox="0 0 204 64" fill="none" xmlns="http://www.w3.org/2000/svg">
<g filter="url(#filter0_dd_52_81)">
<path d="M7.05957 11C7.05957 6.28595 7.05957 3.92893 8.52404 2.46447C9.9885 1 12.3455 1 17.0596 1H187.06C191.774 1 194.131 1 195.595 2.46447C197.06 3.92893 197.06 6.28595 197.06 11V40C197.06 44.714 197.06 47.0711 195.595 48.5355C194.131 50 191.774 50 187.06 50H17.0596C12.3455 50 9.9885 50 8.52404 48.5355C7.05957 47.0711 7.05957 44.714 7.05957 40V39.0036C7.05957 37.6487 7.05957 36.9713 7.333 36.3755C7.60643 35.7797 8.12007 35.338 9.14733 34.4545L14.2699 30.0491C16.729 27.9342 17.9586 26.8768 17.9586 25.5C17.9586 24.1232 16.729 23.0658 14.2699 20.9509L9.14734 16.5455C8.12007 15.662 7.60643 15.2203 7.333 14.6245C7.05957 14.0287 7.05957 13.3513 7.05957 11.9964V11Z" fill="#201E28"/>
<path d="M7.05957 11C7.05957 6.28595 7.05957 3.92893 8.52404 2.46447C9.9885 1 12.3455 1 17.0596 1H187.06C191.774 1 194.131 1 195.595 2.46447C197.06 3.92893 197.06 6.28595 197.06 11V40C197.06 44.714 197.06 47.0711 195.595 48.5355C194.131 50 191.774 50 187.06 50H17.0596C12.3455 50 9.9885 50 8.52404 48.5355C7.05957 47.0711 7.05957 44.714 7.05957 40V39.0036C7.05957 37.6487 7.05957 36.9713 7.333 36.3755C7.60643 35.7797 8.12007 35.338 9.14733 34.4545L14.2699 30.0491C16.729 27.9342 17.9586 26.8768 17.9586 25.5C17.9586 24.1232 16.729 23.0658 14.2699 20.9509L9.14734 16.5455C8.12007 15.662 7.60643 15.2203 7.333 14.6245C7.05957 14.0287 7.05957 13.3513 7.05957 11.9964V11Z" fill="url(#paint0_linear_52_81)" fill-opacity="0.1"/>
<path d="M7.55957 11C7.55957 8.62884 7.56063 6.90077 7.73817 5.58026C7.91377 4.27414 8.25374 3.44187 8.87759 2.81802C9.50144 2.19417 10.3337 1.8542 11.6398 1.6786C12.9603 1.50106 14.6884 1.5 17.0596 1.5H187.06C189.431 1.5 191.159 1.50106 192.479 1.6786C193.785 1.8542 194.618 2.19417 195.242 2.81802C195.865 3.44187 196.205 4.27414 196.381 5.58026C196.559 6.90077 196.56 8.62884 196.56 11V40C196.56 42.3712 196.559 44.0992 196.381 45.4197C196.205 46.7259 195.865 47.5581 195.242 48.182C194.618 48.8058 193.785 49.1458 192.479 49.3214C191.159 49.4989 189.431 49.5 187.06 49.5H17.0596C14.6884 49.5 12.9603 49.4989 11.6398 49.3214C10.3337 49.1458 9.50144 48.8058 8.87759 48.182C8.25374 47.5581 7.91377 46.7259 7.73817 45.4197C7.56063 44.0992 7.55957 42.3712 7.55957 40V39.0036C7.55957 37.6031 7.57022 37.0573 7.78743 36.584C8.00464 36.1108 8.41148 35.7468 9.47335 34.8336L14.5959 30.4282L14.627 30.4014C15.8303 29.3667 16.7743 28.5549 17.4123 27.8275C18.0652 27.0833 18.4586 26.361 18.4586 25.5C18.4586 24.639 18.0652 23.9167 17.4123 23.1725C16.7743 22.4451 15.8302 21.6333 14.627 20.5985L14.5959 20.5718L9.47336 16.1664C8.41148 15.2532 8.00464 14.8892 7.78743 14.416C7.57022 13.9427 7.55957 13.3969 7.55957 11.9964V11Z" stroke="url(#paint1_linear_52_81)" stroke-opacity="0.3"/>
</g>
<path d="M63.6196 27.26V23.74C63.6196 22.9667 63.6196 22.3333 63.6196 21.84C63.6196 21.3467 63.6196 20.9533 63.6196 20.66C63.6196 20.3533 63.6129 20.1133 63.5996 19.94C63.5996 19.7533 63.5929 19.58 63.5796 19.42C63.5529 19.0733 63.4862 18.8133 63.3796 18.64C63.2729 18.4667 63.0529 18.3467 62.7196 18.28C62.6396 18.2533 62.5262 18.24 62.3796 18.24C62.2462 18.2267 62.1329 18.22 62.0396 18.22C61.9329 18.22 61.8796 18.18 61.8796 18.1C61.8796 17.9933 61.9862 17.94 62.1996 17.94C62.4262 17.94 62.6596 17.9467 62.8996 17.96C63.1529 17.96 63.3862 17.9667 63.5996 17.98C63.8262 17.98 64.0129 17.9867 64.1596 18C64.3196 18 64.4196 18 64.4596 18C64.6862 18 65.0462 17.9933 65.5396 17.98C66.0329 17.9533 66.5129 17.94 66.9796 17.94C67.6062 17.94 68.1329 17.9867 68.5596 18.08C68.9996 18.1733 69.3662 18.28 69.6596 18.4C69.9529 18.52 70.1796 18.6467 70.3396 18.78C70.4996 18.9 70.6196 19 70.6996 19.08C70.9262 19.2933 71.1462 19.6133 71.3596 20.04C71.5862 20.4533 71.6996 20.9267 71.6996 21.46C71.6996 22.1667 71.5729 22.8133 71.3196 23.4C71.0796 23.9867 70.7396 24.4933 70.2996 24.92C69.8596 25.3333 69.3396 25.6533 68.7396 25.88C68.1396 26.1067 67.4862 26.22 66.7796 26.22C66.7262 26.22 66.6529 26.22 66.5596 26.22C66.4796 26.22 66.4129 26.2133 66.3596 26.2C66.3062 26.2 66.2529 26.1933 66.1996 26.18C66.1596 26.1533 66.1396 26.1133 66.1396 26.06C66.1396 25.98 66.1729 25.9333 66.2396 25.92C66.3196 25.8933 66.4662 25.88 66.6796 25.88C67.1596 25.88 67.6129 25.8 68.0396 25.64C68.4662 25.4667 68.8329 25.2333 69.1396 24.94C69.4462 24.6467 69.6862 24.3067 69.8596 23.92C70.0462 23.52 70.1396 23.0867 70.1396 22.62C70.1396 22.46 70.1262 22.26 70.0996 22.02C70.0862 21.78 70.0396 21.52 69.9596 21.24C69.8929 20.96 69.7862 20.6733 69.6396 20.38C69.4929 20.0867 69.2862 19.8067 69.0196 19.54C68.7529 19.2733 68.4796 19.0733 68.1996 18.94C67.9329 18.7933 67.6729 18.6933 67.4196 18.64C67.1796 18.5733 66.9596 18.54 66.7596 18.54C66.5596 18.54 66.3996 18.54 66.2796 18.54C66.1062 18.54 65.9396 18.5533 65.7796 18.58C65.6329 18.5933 65.5129 18.62 65.4196 18.66C65.3129 18.7 65.2596 18.8267 65.2596 19.04V27.26C65.2596 28.22 65.2596 29.08 65.2596 29.84C65.2729 30.5867 65.3062 31.1733 65.3596 31.6C65.3862 31.8933 65.4462 32.14 65.5396 32.34C65.6329 32.54 65.8329 32.66 66.1396 32.7C66.2862 32.7267 66.4462 32.7467 66.6196 32.76C66.8062 32.7733 66.9462 32.78 67.0396 32.78C67.1462 32.78 67.1996 32.82 67.1996 32.9C67.1996 33.0067 67.0929 33.06 66.8796 33.06C66.5996 33.06 66.3196 33.0533 66.0396 33.04C65.7596 33.04 65.4996 33.0333 65.2596 33.02C65.0329 33.02 64.8396 33.0133 64.6796 33C64.5329 33 64.4462 33 64.4196 33C64.4062 33 64.3262 33 64.1796 33C64.0329 33.0133 63.8596 33.02 63.6596 33.02C63.4596 33.0333 63.2529 33.04 63.0396 33.04C62.8262 33.0533 62.6462 33.06 62.4996 33.06C62.2862 33.06 62.1796 33.0067 62.1796 32.9C62.1796 32.82 62.2329 32.78 62.3396 32.78C62.4329 32.78 62.5329 32.7733 62.6396 32.76C62.7462 32.7467 62.8462 32.7267 62.9396 32.7C63.1396 32.66 63.2729 32.54 63.3396 32.34C63.4196 32.14 63.4796 31.8933 63.5196 31.6C63.5729 31.1733 63.5996 30.5867 63.5996 29.84C63.6129 29.08 63.6196 28.22 63.6196 27.26ZM76.4516 27.26V23.74C76.4516 22.9667 76.4516 22.3333 76.4516 21.84C76.4516 21.3467 76.4516 20.9533 76.4516 20.66C76.4516 20.3533 76.4449 20.1133 76.4316 19.94C76.4316 19.7533 76.4249 19.58 76.4116 19.42C76.3849 19.0733 76.3183 18.8133 76.2116 18.64C76.1049 18.4667 75.8849 18.3467 75.5516 18.28C75.4716 18.2533 75.3583 18.24 75.2116 18.24C75.0783 18.2267 74.9649 18.22 74.8716 18.22C74.7649 18.22 74.7116 18.18 74.7116 18.1C74.7116 17.9933 74.8183 17.94 75.0316 17.94C75.2583 17.94 75.4983 17.9467 75.7516 17.96C76.0049 17.96 76.2383 17.9667 76.4516 17.98C76.6783 17.98 76.8649 17.9867 77.0116 18C77.1716 18 77.2649 18 77.2916 18C77.3449 18 77.4649 18 77.6516 18C77.8516 17.9867 78.0716 17.98 78.3116 17.98C78.5649 17.9667 78.8116 17.96 79.0516 17.96C79.2916 17.9467 79.4916 17.94 79.6516 17.94C80.2916 17.94 80.9249 17.9933 81.5516 18.1C82.1916 18.1933 82.7783 18.4333 83.3116 18.82C83.4316 18.9133 83.5716 19.0467 83.7316 19.22C83.8916 19.38 84.0383 19.5733 84.1716 19.8C84.3183 20.0267 84.4383 20.2867 84.5316 20.58C84.6383 20.8733 84.6916 21.1933 84.6916 21.54C84.6916 22.2867 84.5116 23.04 84.1516 23.8C83.7916 24.5467 83.1649 25.3333 82.2716 26.16C83.0983 27.2133 83.8516 28.1733 84.5316 29.04C85.2116 29.9067 85.8449 30.6533 86.4316 31.28C86.9783 31.8533 87.4583 32.2267 87.8716 32.4C88.2849 32.5733 88.6183 32.68 88.8716 32.72C89.0583 32.7467 89.2183 32.7667 89.3516 32.78C89.4849 32.78 89.5849 32.78 89.6516 32.78C89.7716 32.78 89.8316 32.82 89.8316 32.9C89.8316 32.9667 89.7983 33.0067 89.7316 33.02C89.6649 33.0467 89.5383 33.06 89.3516 33.06H87.9316C87.3716 33.06 86.9383 33.0333 86.6316 32.98C86.3249 32.9267 86.0449 32.8267 85.7916 32.68C85.3649 32.4533 84.9516 32.1 84.5516 31.62C84.1516 31.1267 83.6649 30.5 83.0916 29.74C82.8783 29.46 82.6649 29.1733 82.4516 28.88C82.2383 28.5867 82.0316 28.3067 81.8316 28.04C81.6449 27.7733 81.4649 27.5333 81.2916 27.32C81.1316 27.0933 81.0049 26.9133 80.9116 26.78C80.8316 26.7 80.7449 26.66 80.6516 26.66L78.1916 26.62C78.0983 26.62 78.0516 26.6733 78.0516 26.78V27.26C78.0516 28.22 78.0516 29.08 78.0516 29.84C78.0649 30.5867 78.0983 31.1733 78.1516 31.6C78.1783 31.8933 78.2383 32.14 78.3316 32.34C78.4249 32.54 78.6249 32.66 78.9316 32.7C79.0783 32.7267 79.2383 32.7467 79.4116 32.76C79.5983 32.7733 79.7383 32.78 79.8316 32.78C79.9383 32.78 79.9916 32.82 79.9916 32.9C79.9916 33.0067 79.8849 33.06 79.6716 33.06C79.3916 33.06 79.1116 33.0533 78.8316 33.04C78.5516 33.04 78.2916 33.0333 78.0516 33.02C77.8249 33.02 77.6316 33.0133 77.4716 33C77.3249 33 77.2383 33 77.2116 33C77.2116 33 77.1383 33 76.9916 33C76.8583 33.0133 76.6916 33.02 76.4916 33.02C76.2916 33.0333 76.0849 33.04 75.8716 33.04C75.6583 33.0533 75.4783 33.06 75.3316 33.06C75.1183 33.06 75.0116 33.0067 75.0116 32.9C75.0116 32.82 75.0649 32.78 75.1716 32.78C75.2649 32.78 75.3649 32.7733 75.4716 32.76C75.5783 32.7467 75.6783 32.7267 75.7716 32.7C75.9716 32.66 76.1049 32.54 76.1716 32.34C76.2516 32.14 76.3116 31.8933 76.3516 31.6C76.4049 31.1733 76.4316 30.5867 76.4316 29.84C76.4449 29.08 76.4516 28.22 76.4516 27.26ZM78.0516 18.94V25.48C78.0516 25.5867 78.0983 25.6667 78.1916 25.72C78.3383 25.8133 78.6116 25.8933 79.0116 25.96C79.4249 26.0133 79.8516 26.04 80.2916 26.04C80.5316 26.04 80.7849 26.02 81.0516 25.98C81.3183 25.9267 81.5649 25.82 81.7916 25.66C82.1383 25.42 82.4249 25.04 82.6516 24.52C82.8916 23.9867 83.0116 23.34 83.0116 22.58C83.0116 21.3267 82.7049 20.3467 82.0916 19.64C81.4783 18.9333 80.6316 18.58 79.5516 18.58C79.2449 18.58 78.9716 18.5933 78.7316 18.62C78.4916 18.6467 78.3183 18.6733 78.2116 18.7C78.1049 18.74 78.0516 18.82 78.0516 18.94ZM89.5427 25.48C89.5427 24.9467 89.6094 24.38 89.7427 23.78C89.876 23.18 90.0827 22.5933 90.3627 22.02C90.6427 21.4333 90.9894 20.88 91.4027 20.36C91.8294 19.8267 92.336 19.36 92.9227 18.96C93.5094 18.56 94.176 18.2467 94.9227 18.02C95.6694 17.78 96.5027 17.66 97.4227 17.66C98.5427 17.66 99.5827 17.8333 100.543 18.18C101.503 18.5267 102.329 19.0267 103.023 19.68C103.729 20.32 104.283 21.1067 104.683 22.04C105.083 22.96 105.283 24 105.283 25.16C105.283 26.28 105.089 27.34 104.703 28.34C104.329 29.3267 103.796 30.1933 103.103 30.94C102.409 31.6733 101.569 32.26 100.583 32.7C99.596 33.1267 98.5027 33.34 97.3027 33.34C95.9294 33.34 94.7494 33.1 93.7627 32.62C92.7894 32.14 91.9894 31.52 91.3627 30.76C90.736 30 90.276 29.16 89.9827 28.24C89.6894 27.3067 89.5427 26.3867 89.5427 25.48ZM91.4427 24.92C91.4427 26.08 91.6027 27.1333 91.9227 28.08C92.256 29.0267 92.7094 29.8333 93.2827 30.5C93.8694 31.1667 94.5494 31.68 95.3227 32.04C96.096 32.4 96.936 32.58 97.8427 32.58C98.296 32.58 98.836 32.5 99.4627 32.34C100.089 32.1667 100.689 31.8333 101.263 31.34C101.849 30.8467 102.343 30.1533 102.743 29.26C103.156 28.3533 103.363 27.1733 103.363 25.72C103.363 24.52 103.189 23.46 102.843 22.54C102.509 21.62 102.063 20.8533 101.503 20.24C100.943 19.6133 100.296 19.14 99.5627 18.82C98.8294 18.5 98.0694 18.34 97.2827 18.34C96.4427 18.34 95.6627 18.48 94.9427 18.76C94.236 19.0267 93.6227 19.44 93.1027 20C92.5827 20.5467 92.176 21.2333 91.8827 22.06C91.5894 22.8733 91.4427 23.8267 91.4427 24.92ZM109.518 27.26V23.74C109.518 22.9667 109.518 22.3333 109.518 21.84C109.518 21.3467 109.518 20.9533 109.518 20.66C109.518 20.3533 109.511 20.1133 109.498 19.94C109.498 19.7533 109.491 19.58 109.478 19.42C109.451 19.0733 109.385 18.8133 109.278 18.64C109.171 18.4667 108.951 18.3467 108.618 18.28C108.538 18.2533 108.425 18.24 108.278 18.24C108.145 18.2267 108.031 18.22 107.938 18.22C107.831 18.22 107.778 18.18 107.778 18.1C107.778 17.9933 107.885 17.94 108.098 17.94C108.325 17.94 108.565 17.9467 108.818 17.96C109.071 17.96 109.305 17.9667 109.518 17.98C109.745 17.98 109.931 17.9867 110.078 18C110.238 18 110.331 18 110.358 18C110.598 18 110.905 17.9933 111.278 17.98C111.651 17.9533 112.071 17.94 112.538 17.94C113.351 17.94 114.018 18.0533 114.538 18.28C115.058 18.4933 115.465 18.76 115.758 19.08C116.065 19.3867 116.271 19.7133 116.378 20.06C116.485 20.3933 116.538 20.6867 116.538 20.94C116.538 21.3533 116.485 21.7267 116.378 22.06C116.271 22.3933 116.125 22.7067 115.938 23C115.765 23.28 115.565 23.5467 115.338 23.8C115.125 24.0533 114.898 24.3 114.658 24.54C115.031 24.66 115.418 24.84 115.818 25.08C116.231 25.3067 116.605 25.6 116.938 25.96C117.285 26.3067 117.565 26.7133 117.778 27.18C118.005 27.6467 118.118 28.1733 118.118 28.76C118.118 29.2933 118.011 29.82 117.798 30.34C117.585 30.86 117.265 31.3267 116.838 31.74C116.425 32.1533 115.898 32.4867 115.258 32.74C114.618 32.9933 113.871 33.12 113.018 33.12C112.911 33.12 112.718 33.1133 112.438 33.1C112.158 33.0867 111.871 33.0733 111.578 33.06C111.285 33.0333 111.018 33.0133 110.778 33C110.538 33 110.398 33 110.358 33C110.331 33 110.245 33 110.098 33C109.951 33 109.771 33.0067 109.558 33.02C109.358 33.02 109.151 33.0267 108.938 33.04C108.725 33.0533 108.545 33.06 108.398 33.06C108.185 33.06 108.078 33.0067 108.078 32.9C108.078 32.82 108.131 32.78 108.238 32.78C108.331 32.78 108.431 32.7733 108.538 32.76C108.645 32.7467 108.745 32.7267 108.838 32.7C109.038 32.66 109.171 32.54 109.238 32.34C109.318 32.14 109.378 31.8933 109.418 31.6C109.471 31.1733 109.498 30.5867 109.498 29.84C109.511 29.08 109.518 28.22 109.518 27.26ZM111.118 18.82V24.18C111.118 24.2867 111.165 24.36 111.258 24.4C111.325 24.4133 111.451 24.4333 111.638 24.46C111.825 24.4733 112.105 24.48 112.478 24.48C112.758 24.48 112.991 24.48 113.178 24.48C113.365 24.4667 113.518 24.44 113.638 24.4C113.771 24.36 113.885 24.3067 113.978 24.24C114.085 24.1733 114.191 24.08 114.298 23.96C114.511 23.72 114.685 23.4267 114.818 23.08C114.951 22.7333 115.018 22.3533 115.018 21.94C115.018 21.5267 114.965 21.1133 114.858 20.7C114.765 20.2867 114.611 19.92 114.398 19.6C114.185 19.2667 113.905 19 113.558 18.8C113.225 18.6 112.811 18.5 112.318 18.5C112.211 18.5 112.065 18.5067 111.878 18.52C111.691 18.5333 111.518 18.56 111.358 18.6C111.198 18.64 111.118 18.7133 111.118 18.82ZM111.118 25.16V26.3C111.118 26.6867 111.118 27.1133 111.118 27.58C111.118 28.0467 111.118 28.4933 111.118 28.92C111.118 29.3467 111.118 29.72 111.118 30.04C111.131 30.3467 111.138 30.54 111.138 30.62C111.151 30.86 111.165 31.0667 111.178 31.24C111.191 31.4 111.218 31.54 111.258 31.66C111.311 31.7667 111.378 31.86 111.458 31.94C111.538 32.02 111.658 32.1 111.818 32.18C111.951 32.2467 112.098 32.3 112.258 32.34C112.431 32.38 112.598 32.4133 112.758 32.44C112.931 32.4533 113.085 32.4667 113.218 32.48C113.365 32.48 113.485 32.48 113.578 32.48C113.845 32.48 114.138 32.44 114.458 32.36C114.791 32.2667 115.098 32.1133 115.378 31.9C115.671 31.6867 115.911 31.4 116.098 31.04C116.298 30.6667 116.398 30.2 116.398 29.64C116.398 29.3467 116.365 29.02 116.298 28.66C116.245 28.3 116.145 27.94 115.998 27.58C115.851 27.22 115.651 26.8733 115.398 26.54C115.158 26.2067 114.845 25.9067 114.458 25.64C114.111 25.4133 113.805 25.2667 113.538 25.2C113.285 25.1333 113.038 25.0867 112.798 25.06C112.731 25.0467 112.625 25.04 112.478 25.04C112.345 25.0267 112.198 25.02 112.038 25.02C111.878 25.02 111.725 25.02 111.578 25.02C111.431 25.02 111.318 25.02 111.238 25.02C111.158 25.02 111.118 25.0667 111.118 25.16ZM124.928 23.74V27.3C124.928 28.7667 124.955 29.8533 125.008 30.56C125.062 31.2667 125.182 31.7067 125.368 31.88C125.448 31.96 125.542 32.0333 125.648 32.1C125.768 32.1533 125.915 32.2 126.088 32.24C126.275 32.2667 126.502 32.2933 126.768 32.32C127.048 32.3333 127.382 32.34 127.768 32.34C128.302 32.34 128.775 32.3133 129.188 32.26C129.615 32.2067 129.948 32.0333 130.188 31.74C130.322 31.58 130.435 31.3867 130.528 31.16C130.622 30.9333 130.682 30.7267 130.708 30.54C130.735 30.3667 130.795 30.28 130.888 30.28C130.968 30.28 131.008 30.38 131.008 30.58C131.008 30.6333 131.002 30.74 130.988 30.9C130.975 31.06 130.948 31.24 130.908 31.44C130.882 31.64 130.848 31.8467 130.808 32.06C130.782 32.26 130.748 32.4333 130.708 32.58C130.668 32.7 130.628 32.7933 130.588 32.86C130.562 32.9267 130.508 32.98 130.428 33.02C130.348 33.06 130.228 33.0867 130.068 33.1C129.922 33.1133 129.715 33.12 129.448 33.12C128.728 33.12 128.102 33.1133 127.568 33.1C127.035 33.0867 126.555 33.0733 126.128 33.06C125.702 33.0333 125.328 33.0133 125.008 33C124.688 33 124.382 33 124.088 33C124.048 33 123.948 33 123.788 33C123.642 33.0133 123.468 33.02 123.268 33.02C123.068 33.0333 122.862 33.04 122.648 33.04C122.448 33.0533 122.275 33.06 122.128 33.06C121.915 33.06 121.808 33.0067 121.808 32.9C121.808 32.82 121.862 32.78 121.968 32.78C122.062 32.78 122.162 32.7733 122.268 32.76C122.375 32.7467 122.475 32.7267 122.568 32.7C122.768 32.66 122.902 32.54 122.968 32.34C123.048 32.14 123.108 31.8933 123.148 31.6C123.202 31.1733 123.228 30.5867 123.228 29.84C123.242 29.08 123.248 28.22 123.248 27.26V23.74C123.248 22.9667 123.248 22.3333 123.248 21.84C123.248 21.3467 123.248 20.9533 123.248 20.66C123.248 20.3533 123.242 20.1133 123.228 19.94C123.228 19.7533 123.222 19.58 123.208 19.42C123.182 19.0733 123.115 18.8133 123.008 18.64C122.902 18.4667 122.682 18.3467 122.348 18.28C122.268 18.2533 122.155 18.24 122.008 18.24C121.875 18.2267 121.762 18.22 121.668 18.22C121.562 18.22 121.508 18.18 121.508 18.1C121.508 17.9933 121.615 17.94 121.828 17.94C122.055 17.94 122.295 17.9467 122.548 17.96C122.802 17.96 123.035 17.9667 123.248 17.98C123.475 17.98 123.662 17.9867 123.808 18C123.968 18 124.062 18 124.088 18C124.115 18 124.215 18 124.388 18C124.562 17.9867 124.762 17.98 124.988 17.98C125.215 17.9667 125.442 17.96 125.668 17.96C125.908 17.9467 126.102 17.94 126.248 17.94C126.462 17.94 126.568 17.9933 126.568 18.1C126.568 18.18 126.515 18.22 126.408 18.22C126.342 18.22 126.242 18.2267 126.108 18.24C125.988 18.24 125.868 18.2533 125.748 18.28C125.455 18.3333 125.255 18.4533 125.148 18.64C125.055 18.8133 124.995 19.0733 124.968 19.42C124.955 19.58 124.942 19.7533 124.928 19.94C124.928 20.1133 124.928 20.3533 124.928 20.66C124.928 20.9533 124.928 21.3467 124.928 21.84C124.928 22.3333 124.928 22.9667 124.928 23.74ZM135.084 27.26V23.74C135.084 22.9667 135.084 22.3333 135.084 21.84C135.084 21.3467 135.084 20.9533 135.084 20.66C135.084 20.3533 135.078 20.1133 135.064 19.94C135.064 19.7533 135.058 19.58 135.044 19.42C135.018 19.0733 134.951 18.8133 134.844 18.64C134.738 18.4667 134.518 18.3467 134.184 18.28C134.104 18.2533 133.991 18.24 133.844 18.24C133.711 18.2267 133.598 18.22 133.504 18.22C133.398 18.22 133.344 18.18 133.344 18.1C133.344 17.9933 133.451 17.94 133.664 17.94C133.891 17.94 134.131 17.94 134.384 17.94C134.638 17.94 134.878 17.9467 135.104 17.96L135.924 18C135.964 18 136.198 18 136.624 18C137.064 18 137.551 18 138.084 18C138.631 18 139.138 18 139.604 18C140.084 17.9867 140.384 17.98 140.504 17.98C140.891 17.9533 141.178 17.92 141.364 17.88C141.418 17.8667 141.464 17.8467 141.504 17.82C141.544 17.7933 141.591 17.78 141.644 17.78C141.698 17.78 141.724 17.84 141.724 17.96C141.724 18.0267 141.704 18.1333 141.664 18.28C141.624 18.4133 141.591 18.62 141.564 18.9C141.564 18.9533 141.558 19.04 141.544 19.16C141.544 19.28 141.538 19.4133 141.524 19.56C141.511 19.6933 141.498 19.8267 141.484 19.96C141.484 20.08 141.478 20.1667 141.464 20.22C141.451 20.2733 141.431 20.3267 141.404 20.38C141.391 20.42 141.364 20.44 141.324 20.44C141.218 20.44 141.164 20.3533 141.164 20.18C141.164 20.1133 141.158 20.0067 141.144 19.86C141.131 19.7133 141.098 19.58 141.044 19.46C140.978 19.3 140.858 19.1667 140.684 19.06C140.511 18.94 140.158 18.8467 139.624 18.78C139.544 18.7667 139.364 18.76 139.084 18.76C138.804 18.7467 138.511 18.74 138.204 18.74C137.898 18.7267 137.611 18.72 137.344 18.72C137.091 18.72 136.938 18.72 136.884 18.72C136.804 18.72 136.764 18.7867 136.764 18.92V24.44C136.764 24.5733 136.804 24.64 136.884 24.64C136.951 24.64 137.131 24.64 137.424 24.64C137.718 24.64 138.038 24.64 138.384 24.64C138.744 24.64 139.084 24.64 139.404 24.64C139.724 24.6267 139.944 24.6133 140.064 24.6C140.304 24.5733 140.498 24.5467 140.644 24.52C140.791 24.4933 140.911 24.4267 141.004 24.32C141.151 24.1467 141.251 24.06 141.304 24.06C141.371 24.06 141.404 24.1133 141.404 24.22C141.404 24.2867 141.384 24.4067 141.344 24.58C141.304 24.7533 141.271 25.0067 141.244 25.34C141.231 25.4467 141.218 25.5667 141.204 25.7C141.204 25.82 141.198 25.9467 141.184 26.08C141.184 26.2 141.178 26.3133 141.164 26.42C141.164 26.5133 141.164 26.58 141.164 26.62C141.164 26.7 141.158 26.7867 141.144 26.88C141.131 26.96 141.091 27 141.024 27C140.931 27 140.884 26.94 140.884 26.82C140.884 26.7133 140.878 26.6133 140.864 26.52C140.864 26.4133 140.844 26.2933 140.804 26.16C140.764 26.0133 140.678 25.8733 140.544 25.74C140.411 25.5933 140.151 25.5 139.764 25.46C139.631 25.4467 139.418 25.4333 139.124 25.42C138.844 25.4067 138.551 25.4 138.244 25.4C137.951 25.3867 137.671 25.38 137.404 25.38C137.151 25.3667 136.984 25.36 136.904 25.36C136.811 25.36 136.764 25.4067 136.764 25.5V27.26C136.764 27.4333 136.764 27.6867 136.764 28.02C136.764 28.3533 136.764 28.7 136.764 29.06C136.764 29.42 136.764 29.7533 136.764 30.06C136.764 30.3667 136.764 30.5733 136.764 30.68C136.778 31.0267 136.811 31.3067 136.864 31.52C136.931 31.7333 137.044 31.9 137.204 32.02C137.378 32.14 137.611 32.22 137.904 32.26C138.198 32.3 138.591 32.32 139.084 32.32C139.351 32.32 139.671 32.3133 140.044 32.3C140.418 32.2733 140.738 32.2067 141.004 32.1C141.271 31.9933 141.471 31.8333 141.604 31.62C141.738 31.3933 141.838 31.0733 141.904 30.66C141.944 30.46 142.004 30.36 142.084 30.36C142.151 30.36 142.184 30.3933 142.184 30.46C142.198 30.5267 142.204 30.5933 142.204 30.66C142.204 30.7 142.191 30.8067 142.164 30.98C142.151 31.14 142.131 31.3267 142.104 31.54C142.078 31.74 142.051 31.94 142.024 32.14C141.998 32.34 141.971 32.4933 141.944 32.6C141.904 32.7333 141.864 32.8333 141.824 32.9C141.784 32.9667 141.724 33.0133 141.644 33.04C141.564 33.08 141.464 33.1 141.344 33.1C141.224 33.1133 141.064 33.12 140.864 33.12C140.104 33.12 139.444 33.1133 138.884 33.1C138.338 33.0867 137.871 33.0733 137.484 33.06C137.098 33.0333 136.778 33.0133 136.524 33C136.271 33 136.071 33 135.924 33C135.898 33 135.811 33 135.664 33C135.518 33 135.338 33.0067 135.124 33.02C134.924 33.02 134.718 33.0267 134.504 33.04C134.291 33.0533 134.111 33.06 133.964 33.06C133.751 33.06 133.644 33.0067 133.644 32.9C133.644 32.82 133.698 32.78 133.804 32.78C133.898 32.78 133.998 32.7733 134.104 32.76C134.211 32.7467 134.311 32.7267 134.404 32.7C134.604 32.66 134.738 32.54 134.804 32.34C134.884 32.14 134.944 31.8933 134.984 31.6C135.038 31.1733 135.064 30.5867 135.064 29.84C135.078 29.08 135.084 28.22 135.084 27.26ZM160.831 18.2L162.171 30.48C162.185 30.6667 162.211 30.8667 162.251 31.08C162.291 31.2933 162.345 31.5 162.411 31.7C162.491 31.9 162.598 32.0867 162.731 32.26C162.865 32.42 163.038 32.5333 163.251 32.6C163.545 32.6933 163.805 32.7467 164.031 32.76C164.271 32.7733 164.445 32.78 164.551 32.78C164.658 32.78 164.711 32.8133 164.711 32.88C164.711 32.9467 164.671 32.9933 164.591 33.02C164.511 33.0467 164.411 33.06 164.291 33.06C164.185 33.06 163.985 33.0533 163.691 33.04C163.398 33.04 163.078 33.0333 162.731 33.02C162.385 33.0067 162.045 32.9933 161.711 32.98C161.391 32.9667 161.138 32.9533 160.951 32.94C160.725 32.9133 160.571 32.8867 160.491 32.86C160.425 32.8333 160.391 32.7933 160.391 32.74C160.391 32.66 160.438 32.6133 160.531 32.6C160.585 32.5867 160.618 32.5133 160.631 32.38C160.645 32.2333 160.638 32.0667 160.611 31.88L159.651 21.56H159.591L154.691 31.96C154.478 32.4 154.338 32.6867 154.271 32.82C154.205 32.9533 154.125 33.02 154.031 33.02C153.965 33.02 153.891 32.96 153.811 32.84C153.731 32.7067 153.598 32.46 153.411 32.1C153.278 31.86 153.085 31.4933 152.831 31C152.591 30.4933 152.345 29.9867 152.091 29.48C151.838 28.9733 151.611 28.5267 151.411 28.14C151.211 27.74 151.098 27.5133 151.071 27.46C151.045 27.4067 150.965 27.24 150.831 26.96C150.698 26.68 150.538 26.3467 150.351 25.96C150.165 25.56 149.965 25.1333 149.751 24.68C149.551 24.2267 149.358 23.8 149.171 23.4C148.985 23 148.825 22.6533 148.691 22.36C148.558 22.0533 148.471 21.8533 148.431 21.76H148.351L147.551 31.04C147.538 31.2 147.531 31.3667 147.531 31.54C147.531 31.7133 147.531 31.8867 147.531 32.06C147.531 32.2067 147.578 32.34 147.671 32.46C147.778 32.58 147.905 32.6533 148.051 32.68C148.225 32.72 148.378 32.7467 148.511 32.76C148.645 32.7733 148.745 32.78 148.811 32.78C148.918 32.78 148.971 32.8133 148.971 32.88C148.971 33 148.851 33.06 148.611 33.06C148.425 33.06 148.231 33.0533 148.031 33.04C147.831 33.04 147.638 33.0333 147.451 33.02C147.278 33.02 147.125 33.0133 146.991 33C146.871 33 146.791 33 146.751 33C146.711 33 146.625 33 146.491 33C146.358 33.0133 146.205 33.02 146.031 33.02C145.871 33.0333 145.705 33.04 145.531 33.04C145.358 33.0533 145.205 33.06 145.071 33.06C144.845 33.06 144.731 33 144.731 32.88C144.731 32.8133 144.798 32.78 144.931 32.78C145.011 32.78 145.091 32.78 145.171 32.78C145.265 32.7667 145.385 32.7467 145.531 32.72C145.865 32.6533 146.071 32.46 146.151 32.14C146.231 31.8067 146.291 31.4467 146.331 31.06L147.771 18.02C147.798 17.78 147.871 17.66 147.991 17.66C148.098 17.66 148.198 17.76 148.291 17.96L154.411 30.54L160.291 17.98C160.385 17.7667 160.485 17.66 160.591 17.66C160.711 17.66 160.791 17.84 160.831 18.2ZM167.018 30.86L171.558 18.44C171.678 18.1067 171.765 17.8933 171.818 17.8C171.871 17.7067 171.931 17.66 171.998 17.66C172.065 17.66 172.125 17.7067 172.178 17.8C172.231 17.88 172.318 18.0733 172.438 18.38C172.491 18.5 172.611 18.8133 172.798 19.32C172.998 19.8267 173.231 20.4467 173.498 21.18C173.778 21.9 174.085 22.6933 174.418 23.56C174.751 24.4267 175.078 25.2867 175.398 26.14C175.731 26.98 176.045 27.78 176.338 28.54C176.645 29.3 176.898 29.9333 177.098 30.44C177.271 30.88 177.438 31.24 177.598 31.52C177.771 31.8 177.925 32.02 178.058 32.18C178.205 32.34 178.338 32.4533 178.458 32.52C178.591 32.5867 178.711 32.6333 178.818 32.66C178.965 32.7133 179.105 32.7467 179.238 32.76C179.385 32.7733 179.511 32.78 179.618 32.78C179.751 32.78 179.818 32.82 179.818 32.9C179.818 32.9667 179.778 33.0067 179.698 33.02C179.618 33.0467 179.525 33.06 179.418 33.06C179.338 33.06 179.191 33.06 178.978 33.06C178.778 33.06 178.531 33.06 178.238 33.06C177.958 33.06 177.645 33.0533 177.298 33.04C176.965 33.04 176.625 33.0333 176.278 33.02C176.091 33.0067 175.945 33 175.838 33C175.731 32.9867 175.678 32.9467 175.678 32.88C175.678 32.8133 175.725 32.7667 175.818 32.74C175.885 32.7133 175.938 32.66 175.978 32.58C176.018 32.4867 176.005 32.36 175.938 32.2L174.078 27.28C174.038 27.2 173.978 27.16 173.898 27.16H169.598C169.505 27.16 169.438 27.2133 169.398 27.32L168.198 30.86C168.011 31.38 167.918 31.8267 167.918 32.2C167.918 32.4 167.998 32.5467 168.158 32.64C168.331 32.7333 168.505 32.78 168.678 32.78H168.878C169.011 32.78 169.078 32.82 169.078 32.9C169.078 33.0067 168.978 33.06 168.778 33.06C168.658 33.06 168.518 33.0533 168.358 33.04C168.198 33.04 168.045 33.0333 167.898 33.02C167.751 33.02 167.611 33.0133 167.478 33C167.358 33 167.271 33 167.218 33C167.165 33 167.058 33 166.898 33C166.751 33.0133 166.571 33.02 166.358 33.02C166.145 33.0333 165.918 33.04 165.678 33.04C165.438 33.0533 165.198 33.06 164.958 33.06C164.705 33.06 164.578 33.0067 164.578 32.9C164.578 32.82 164.638 32.78 164.758 32.78C164.825 32.78 164.918 32.78 165.038 32.78C165.158 32.7667 165.258 32.7533 165.338 32.74C165.805 32.6733 166.151 32.4733 166.378 32.14C166.618 31.7933 166.831 31.3667 167.018 30.86ZM169.818 26.44H173.638C173.718 26.44 173.745 26.3933 173.718 26.3L171.818 20.9C171.711 20.6067 171.611 20.6067 171.518 20.9L169.758 26.3C169.718 26.3933 169.738 26.44 169.818 26.44Z" fill="white"/>
<g clip-path="url(#clip0_52_81)">
<path fill-rule="evenodd" clip-rule="evenodd" d="M37.9079 25.5001L33.6087 21.201L36.2604 18.5493L40.5596 22.8485L44.8588 18.5493L47.5104 21.201L43.2112 25.5001L47.5104 29.7993L44.8588 32.4509L40.5596 28.1518L36.2604 32.4509L33.6087 29.7993L37.9079 25.5001Z" fill="url(#paint2_radial_52_81)"/>
</g>
<defs>
<filter id="filter0_dd_52_81" x="0.137538" y="0.887806" width="203.844" height="63.0342" filterUnits="userSpaceOnUse" color-interpolation-filters="sRGB">
<feFlood flood-opacity="0" result="BackgroundImageFix"/>
<feColorMatrix in="SourceAlpha" type="matrix" values="0 0 0 0 0 0 0 0 0 0 0 0 0 0 0 0 0 0 127 0" result="hardAlpha"/>
<feOffset dy="3"/>
<feGaussianBlur stdDeviation="1.5561"/>
<feColorMatrix type="matrix" values="0 0 0 0 0 0 0 0 0 0 0 0 0 0 0 0 0 0 0.0992429 0"/>
<feBlend mode="normal" in2="BackgroundImageFix" result="effect1_dropShadow_52_81"/>
<feColorMatrix in="SourceAlpha" type="matrix" values="0 0 0 0 0 0 0 0 0 0 0 0 0 0 0 0 0 0 127 0" result="hardAlpha"/>
<feOffset dy="7"/>
<feGaussianBlur stdDeviation="3.46102"/>
<feColorMatrix type="matrix" values="0 0 0 0 0 0 0 0 0 0 0 0 0 0 0 0 0 0 0.115479 0"/>
<feBlend mode="normal" in2="effect1_dropShadow_52_81" result="effect2_dropShadow_52_81"/>
<feBlend mode="normal" in="SourceGraphic" in2="effect2_dropShadow_52_81" result="shape"/>
</filter>
<linearGradient id="paint0_linear_52_81" x1="213.06" y1="-16.5" x2="75.5595" y2="80" gradientUnits="userSpaceOnUse">
<stop stop-color="white"/>
<stop offset="1" stop-color="white" stop-opacity="0"/>
</linearGradient>
<linearGradient id="paint1_linear_52_81" x1="108.06" y1="-75.5" x2="102.06" y2="47" gradientUnits="userSpaceOnUse">
<stop stop-color="white"/>
<stop offset="1" stop-color="white" stop-opacity="0"/>
</linearGradient>
<radialGradient id="paint2_radial_52_81" cx="0" cy="0" r="1" gradientUnits="userSpaceOnUse" gradientTransform="translate(40.5596 25.5001) rotate(90) scale(6.95081 6.95082)">
<stop offset="0.229167" stop-color="#F66350"/>
<stop offset="1" stop-color="#F66350" stop-opacity="0.55"/>
</radialGradient>
<clipPath id="clip0_52_81">
<rect width="15" height="15" fill="white" transform="translate(33.0596 18)"/>
</clipPath>
</defs>
</svg>
