<svg xmlns="http://www.w3.org/2000/svg"
    xmlns:svg="http://www.w3.org/2000/svg" width="66" height="56">
    <path d="m62,14.13l0,-6c0,-1.59 -0.64,-3.12 -1.76,-4.24c-1.13,-1.13 -2.65,-1.76 -4.24,-1.76l-48,0c-1.6,0 -3.12,0.63 -4.25,1.76c-1.12,1.12 -1.75,2.65 -1.75,4.24l0,36c0,1.59 0.63,3.12 1.75,4.24c1.13,1.13 2.65,1.76 4.25,1.76l18,0" fill="none" id="Vector" stroke="#F8CC58" stroke-linecap="round" stroke-linejoin="round" stroke-width="4"/>
    <path d="m31,21l13.71,32.91l4.87,-14.33l14.33,-4.87l-32.91,-13.71z" fill="none" id="Vector_2" stroke="#F8CC58" stroke-linecap="round" stroke-linejoin="round" stroke-width="4"/>
    <path d="m50.39,40.39l11.63,11.64" fill="none" id="Vector_3" stroke="#F8CC58" stroke-linecap="round" stroke-linejoin="round" stroke-width="4"/>
</svg>