<svg width="28" height="27" viewBox="0 0 28 27" fill="none" xmlns="http://www.w3.org/2000/svg">
<g id="certificat">
<g id="Group 258">
<path id="Rectangle 28" d="M13.4989 21.2061H5.05957C3.40272 21.2061 2.05957 19.863 2.05957 18.2061V6C2.05957 4.34314 3.40272 3 5.05957 3H21.8318C23.4887 3 24.8318 4.34315 24.8318 6V18.2061C24.8318 19.863 23.4887 21.2061 21.8318 21.2061H19.591" stroke="#201E28" stroke-width="2"/>
<path id="Rectangle 29" d="M13.2995 19.2155V23.0892C13.2995 24.3858 14.7448 25.159 15.8233 24.4394V24.4394C16.3687 24.0755 17.0795 24.0755 17.6249 24.4394V24.4394C18.7035 25.159 20.1487 24.3858 20.1487 23.0892V19.2155" stroke="#201E28" stroke-width="2"/>
<path id="Line 4" d="M6.56721 7.62476H20.3242" stroke="#201E28" stroke-width="2" stroke-linecap="round"/>
<path id="Line 5" d="M6.56721 12.074H10.0211" stroke="#201E28" stroke-width="2" stroke-linecap="round"/>
<path id="Ellipse 17" d="M16.8119 21.328C19.0865 21.328 20.9145 19.4692 20.9145 17.1961C20.9145 14.923 19.0865 13.0642 16.8119 13.0642C14.5372 13.0642 12.7092 14.923 12.7092 17.1961C12.7092 19.4692 14.5372 21.328 16.8119 21.328Z" stroke="#201E28" stroke-width="2"/>
</g>
</g>
</svg>
