<svg width="20" height="18" viewBox="0 0 20 18" fill="none"
    xmlns="http://www.w3.org/2000/svg">
    <g clip-path="url(#clip0_343_184)">
        <path d="M19 4.00008C19 2.89548 18.1045 2.00003 16.9999 2.00008L2.99993 2.00061C1.89539 2.00065 1 2.89607 1.00001 4.00062L1.00006 14C1.00006 15.1046 1.89549 16 3.00006 16H17C18.1046 16 19 15.1046 19 14V4.00008ZM7.4644 9.00048L2.38459 13.708V4.29298L7.4644 9.00048ZM8.48556 9.95423L9.53268 10.9167C9.6603 11.0348 9.82701 11.1003 9.99998 11.1003C10.173 11.1003 10.3397 11.0348 10.4673 10.9167L11.5144 9.95423L16.525 14.6005H3.47497L8.48556 9.95423ZM12.5356 9.00048L17.6154 4.29298V13.708L12.5356 9.00048Z" fill="#F8CC58"/>
    </g>
    <defs>
        <clipPath id="clip0_343_184">
            <rect width="20" height="18" fill="white"/>
        </clipPath>
    </defs>
</svg>
