<?xml version="1.0"?>
<svg width="19" height="15" xmlns="http://www.w3.org/2000/svg" xmlns:svg="http://www.w3.org/2000/svg">
 <defs>
  <clipPath id="clip0_343_184">
   <rect fill="white" height="18" id="svg_1" width="20"/>
  </clipPath>
 </defs>
 <g class="layer">
  <title>Layer 1</title>
  <g clip-path="url(#clip0_343_184)" id="svg_2">
   <path d="m18.5,2.5c0,-1.1 -0.9,-2 -2,-2l-14,0c-1.1,0 -2,0.9 -2,2l0,10c0,1.1 0.9,2 2,2l14,0c1.1,0 2,-0.9 2,-2l0,-10zm-11.54,5l-5.08,4.71l0,-9.42l5.08,4.71zm1.03,0.95l1.04,0.97c0.13,0.11 0.3,0.18 0.47,0.18c0.17,0 0.34,-0.07 0.47,-0.18l1.04,-0.97l5.01,4.65l-13.05,0l5.02,-4.65zm4.05,-0.95l5.08,-4.71l0,9.42l-5.08,-4.71z" fill="#F8CC58" id="svg_3"/>
  </g>
 </g>
</svg>