<svg width="118" height="114" viewBox="0 0 118 114" fill="none" xmlns="http://www.w3.org/2000/svg">
<g id="Frame" clip-path="url(#clip0_343_184)" filter="url(#filter0_d_343_184)">
<path id="Vector" d="M68 48.0001C68 46.8955 67.1045 46 65.9999 46.0001L51.9999 46.0006C50.8954 46.0006 50 46.8961 50 48.0006L50.0001 58C50.0001 59.1046 50.8955 60 52.0001 60H66C67.1046 60 68 59.1046 68 58L68 48.0001ZM56.4644 53.0005L51.3846 57.708V48.293L56.4644 53.0005ZM57.4856 53.9542L58.5327 54.9167C58.6603 55.0348 58.827 55.1003 59 55.1003C59.173 55.1003 59.3397 55.0348 59.4673 54.9167L60.5144 53.9542L65.525 58.6005H52.475L57.4856 53.9542ZM61.5356 53.0005L66.6154 48.293V57.708L61.5356 53.0005Z" fill="#F8CC58"/>
</g>
<defs>
<filter id="filter0_d_343_184" x="-1" y="-2" width="120" height="118" filterUnits="userSpaceOnUse" color-interpolation-filters="sRGB">
<feFlood flood-opacity="0" result="BackgroundImageFix"/>
<feColorMatrix in="SourceAlpha" type="matrix" values="0 0 0 0 0 0 0 0 0 0 0 0 0 0 0 0 0 0 127 0" result="hardAlpha"/>
<feOffset dy="4"/>
<feGaussianBlur stdDeviation="25"/>
<feColorMatrix type="matrix" values="0 0 0 0 0.972549 0 0 0 0 0.8 0 0 0 0 0.345098 0 0 0 1 0"/>
<feBlend mode="normal" in2="BackgroundImageFix" result="effect1_dropShadow_343_184"/>
<feBlend mode="normal" in="SourceGraphic" in2="effect1_dropShadow_343_184" result="shape"/>
</filter>
<clipPath id="clip0_343_184">
<rect width="20" height="18" fill="white" transform="translate(49 44)"/>
</clipPath>
</defs>
</svg>
