<svg width="110" height="96" viewBox="0 0 110 96" fill="none" xmlns="http://www.w3.org/2000/svg">
<g id="Frame" clip-path="url(#clip0_105_1108)" filter="url(#filter0_d_105_1108)">
<path id="Vector" d="M59.4062 38.425L57.2078 37.4875C57.0944 37.4367 56.9699 37.4156 56.846 37.4262C56.7222 37.4369 56.6031 37.479 56.5 37.5484L55.3234 38.3313C54.6064 37.983 54.0258 37.4057 53.6734 36.6906L54.4516 35.5C54.5206 35.3968 54.5627 35.278 54.5742 35.1544C54.5857 35.0308 54.5661 34.9063 54.5172 34.7922L53.575 32.5938C53.5093 32.4453 53.3979 32.3217 53.2572 32.2407C53.1164 32.1598 52.9536 32.1259 52.7922 32.1438C52.1592 32.2267 51.5778 32.5366 51.1562 33.016C50.7346 33.4954 50.5014 34.1116 50.5 34.75C50.5 38.4719 53.5281 41.5 57.25 41.5C57.8884 41.4986 58.5046 41.2654 58.984 40.8438C59.4634 40.4222 59.7733 39.8408 59.8562 39.2078C59.8741 39.0465 59.8402 38.8836 59.7593 38.7428C59.6783 38.6021 59.5547 38.4907 59.4062 38.425Z" fill="#F8CC58"/>
<path id="Vector_2" d="M56.3781 33.2359C56.9489 33.3919 57.4692 33.694 57.8876 34.1124C58.306 34.5308 58.6081 35.0511 58.764 35.6219C58.7847 35.702 58.8313 35.773 58.8966 35.8239C58.9619 35.8748 59.0422 35.9026 59.1249 35.9031C59.1583 35.903 59.1914 35.8983 59.2234 35.889C59.2711 35.8766 59.3158 35.8547 59.3549 35.8247C59.394 35.7948 59.4267 35.7573 59.4512 35.7145C59.4756 35.6717 59.4913 35.6245 59.4972 35.5756C59.5032 35.5267 59.4993 35.4771 59.4859 35.4297C59.2984 34.7306 58.9303 34.0932 58.4185 33.5814C57.9067 33.0696 57.2693 32.7015 56.5703 32.514C56.5213 32.4962 56.4693 32.4888 56.4173 32.4922C56.3654 32.4956 56.3147 32.5098 56.2685 32.5339C56.2224 32.5579 56.1817 32.5914 56.1492 32.632C56.1166 32.6726 56.0929 32.7196 56.0795 32.7699C56.0661 32.8202 56.0634 32.8728 56.0714 32.9242C56.0794 32.9756 56.0981 33.0249 56.1261 33.0687C56.1542 33.1125 56.1911 33.15 56.2345 33.1788C56.2779 33.2076 56.3268 33.2271 56.3781 33.2359Z" fill="#F8CC58"/>
<path id="Vector_3" d="M55.989 34.6844C56.3063 34.7712 56.5955 34.9392 56.8281 35.1718C57.0607 35.4045 57.2287 35.6937 57.3156 36.0109C57.3355 36.0915 57.382 36.163 57.4474 36.214C57.5129 36.265 57.5936 36.2925 57.6765 36.2922C57.7083 36.2925 57.74 36.2878 57.7703 36.2781C57.8184 36.2662 57.8636 36.2447 57.9032 36.2149C57.9428 36.1852 57.9761 36.1478 58.001 36.1049C58.0259 36.0621 58.042 36.0147 58.0483 35.9655C58.0545 35.9164 58.0509 35.8665 58.0375 35.8188C57.9191 35.3732 57.6851 34.9669 57.3591 34.6409C57.0331 34.3149 56.6268 34.0809 56.1812 33.9625C56.1323 33.9447 56.0802 33.9372 56.0283 33.9407C55.9763 33.9441 55.9256 33.9583 55.8795 33.9823C55.8333 34.0064 55.7927 34.0398 55.7601 34.0805C55.7276 34.1211 55.7039 34.1681 55.6905 34.2184C55.6771 34.2687 55.6743 34.3212 55.6823 34.3727C55.6904 34.4241 55.709 34.4733 55.7371 34.5171C55.7652 34.561 55.8021 34.5985 55.8455 34.6273C55.8888 34.6561 55.9377 34.6755 55.989 34.6844Z" fill="#F8CC58"/>
</g>
<defs>
<filter id="filter0_d_105_1108" x="-1" y="-15" width="112" height="112" filterUnits="userSpaceOnUse" color-interpolation-filters="sRGB">
<feFlood flood-opacity="0" result="BackgroundImageFix"/>
<feColorMatrix in="SourceAlpha" type="matrix" values="0 0 0 0 0 0 0 0 0 0 0 0 0 0 0 0 0 0 127 0" result="hardAlpha"/>
<feOffset dy="4"/>
<feGaussianBlur stdDeviation="25"/>
<feColorMatrix type="matrix" values="0 0 0 0 0.972549 0 0 0 0 0.8 0 0 0 0 0.345098 0 0 0 0.3 0"/>
<feBlend mode="normal" in2="BackgroundImageFix" result="effect1_dropShadow_105_1108"/>
<feBlend mode="normal" in="SourceGraphic" in2="effect1_dropShadow_105_1108" result="shape"/>
</filter>
<clipPath id="clip0_105_1108">
<rect width="12" height="12" fill="white" transform="translate(49 31)"/>
</clipPath>
</defs>
</svg>
