<?xml version="1.0"?>
<svg width="16" height="16" xmlns="http://www.w3.org/2000/svg" xmlns:svg="http://www.w3.org/2000/svg">
 <defs>
  <clipPath id="clip0_24_7">
   <rect fill="white" height="20" id="svg_1" width="20"/>
  </clipPath>
 </defs>
 <g class="layer">
  <title>Layer 1</title>
  <g clip-path="url(#clip0_24_7)" id="svg_2">
   <path d="m15.04,10.68l-3.66,-1.57c-0.19,-0.08 -0.4,-0.12 -0.6,-0.1c-0.21,0.02 -0.41,0.09 -0.58,0.2l-1.96,1.31c-1.2,-0.58 -2.16,-1.54 -2.75,-2.74l1.3,-1.98c0.11,-0.17 0.18,-0.37 0.2,-0.58c0.02,-0.2 -0.01,-0.41 -0.09,-0.6l-1.58,-3.66c-0.1,-0.25 -0.29,-0.46 -0.52,-0.59c-0.24,-0.14 -0.51,-0.19 -0.78,-0.16c-1.05,0.13 -2.02,0.65 -2.73,1.45c-0.7,0.8 -1.09,1.83 -1.09,2.89c0,6.2 5.05,11.25 11.25,11.25c1.06,0 2.09,-0.39 2.89,-1.09c0.8,-0.71 1.32,-1.68 1.45,-2.73c0.03,-0.27 -0.02,-0.54 -0.16,-0.78c-0.13,-0.23 -0.34,-0.42 -0.59,-0.52z" fill="#F8CC58" id="svg_3"/>
   <path d="m10,2.03c0.95,0.26 1.82,0.76 2.51,1.46c0.7,0.69 1.2,1.56 1.46,2.51c0.04,0.14 0.12,0.26 0.22,0.34c0.11,0.08 0.25,0.13 0.38,0.13c0.06,0 0.12,-0.01 0.17,-0.02c0.08,-0.02 0.15,-0.06 0.22,-0.11c0.06,-0.05 0.12,-0.11 0.16,-0.18c0.04,-0.07 0.07,-0.15 0.08,-0.23c0.01,-0.09 0,-0.17 -0.02,-0.25c-0.32,-1.16 -0.93,-2.22 -1.78,-3.08c-0.86,-0.85 -1.92,-1.46 -3.08,-1.78c-0.08,-0.03 -0.17,-0.04 -0.26,-0.03c-0.08,0 -0.17,0.03 -0.25,0.07c-0.07,0.04 -0.14,0.09 -0.19,0.16c-0.06,0.07 -0.1,0.15 -0.12,0.23c-0.02,0.08 -0.03,0.17 -0.01,0.26c0.01,0.08 0.04,0.16 0.09,0.24c0.04,0.07 0.11,0.13 0.18,0.18c0.07,0.05 0.15,0.08 0.24,0.1z" fill="#F8CC58" id="svg_4"/>
   <path d="m9.35,4.44c0.53,0.15 1.01,0.43 1.4,0.81c0.38,0.39 0.66,0.87 0.81,1.4c0.03,0.14 0.11,0.25 0.22,0.34c0.11,0.08 0.24,0.13 0.38,0.13c0.05,0 0.11,-0.01 0.16,-0.02c0.08,-0.02 0.15,-0.06 0.22,-0.11c0.06,-0.05 0.12,-0.11 0.16,-0.18c0.04,-0.07 0.07,-0.15 0.08,-0.23c0.01,-0.09 0,-0.17 -0.02,-0.25c-0.19,-0.74 -0.59,-1.42 -1.13,-1.96c-0.54,-0.55 -1.22,-0.94 -1.96,-1.13c-0.08,-0.03 -0.17,-0.04 -0.26,-0.04c-0.08,0.01 -0.17,0.03 -0.24,0.07c-0.08,0.04 -0.15,0.1 -0.2,0.16c-0.06,0.07 -0.1,0.15 -0.12,0.23c-0.02,0.09 -0.03,0.18 -0.01,0.26c0.01,0.09 0.04,0.17 0.09,0.24c0.05,0.07 0.11,0.14 0.18,0.19c0.07,0.04 0.15,0.08 0.24,0.09z" fill="#F8CC58" id="svg_5"/>
  </g>
 </g>
</svg>