<svg width="20" height="20" viewBox="0 0 20 20" fill="none" xmlns="http://www.w3.org/2000/svg">
<g clip-path="url(#clip0_24_7)">
<path d="M17.3436 12.375L13.6796 10.8125C13.4905 10.7278 13.283 10.6926 13.0766 10.7104C12.8701 10.7282 12.6717 10.7983 12.4999 10.9141L10.5389 12.2188C9.34382 11.6383 8.37619 10.6762 7.78894 9.48438L9.08582 7.50001C9.20085 7.32803 9.2711 7.13005 9.2902 6.92404C9.3093 6.71803 9.27664 6.51051 9.19519 6.32032L7.62488 2.65626C7.5153 2.40885 7.32976 2.20277 7.09517 2.06791C6.86058 1.93306 6.58913 1.87644 6.32019 1.90626C5.26518 2.04446 4.29626 2.56108 3.59357 3.36005C2.89087 4.15903 2.50222 5.18599 2.49988 6.25001C2.49988 12.4531 7.54675 17.5 13.7499 17.5C14.8139 17.4977 15.8409 17.109 16.6398 16.4063C17.4388 15.7036 17.9554 14.7347 18.0936 13.6797C18.1234 13.4108 18.0668 13.1393 17.932 12.9047C17.7971 12.6701 17.591 12.4846 17.3436 12.375Z" fill="#F8CC58"/>
<path d="M12.2968 3.72657C13.2481 3.98648 14.1152 4.48995 14.8126 5.1873C15.5099 5.88466 16.0134 6.75179 16.2733 7.70313C16.3078 7.8367 16.3855 7.9551 16.4943 8.03989C16.6031 8.12468 16.7369 8.17109 16.8749 8.17188C16.9304 8.17178 16.9856 8.16389 17.039 8.14844C17.1184 8.12766 17.1929 8.09122 17.2581 8.04127C17.3233 7.99133 17.3778 7.92887 17.4186 7.85757C17.4593 7.78626 17.4854 7.70755 17.4954 7.62603C17.5053 7.5445 17.4989 7.46182 17.4765 7.38282C17.164 6.21773 16.5504 5.15536 15.6975 4.3024C14.8445 3.44945 13.7822 2.83592 12.6171 2.52344C12.5355 2.49374 12.4487 2.48134 12.3622 2.48703C12.2756 2.49272 12.1911 2.51638 12.1142 2.55649C12.0372 2.59661 11.9695 2.6523 11.9153 2.72003C11.861 2.78776 11.8215 2.86604 11.7992 2.94989C11.7769 3.03374 11.7722 3.12132 11.7856 3.20705C11.799 3.29278 11.8301 3.37478 11.8769 3.44784C11.9237 3.5209 11.9852 3.58342 12.0575 3.6314C12.1298 3.67939 12.2113 3.7118 12.2968 3.72657Z" fill="#F8CC58"/>
<path d="M11.6483 6.14063C12.1771 6.28539 12.6591 6.5654 13.0468 6.95308C13.4345 7.34077 13.7145 7.82275 13.8593 8.35157C13.8925 8.4858 13.9699 8.60497 14.079 8.68997C14.1881 8.77497 14.3225 8.82088 14.4608 8.82032C14.5138 8.82084 14.5666 8.81293 14.6171 8.79688C14.6972 8.77695 14.7726 8.74113 14.8386 8.69155C14.9047 8.64197 14.9601 8.57964 15.0016 8.50824C15.0432 8.43684 15.0699 8.35784 15.0804 8.27591C15.0908 8.19397 15.0847 8.11078 15.0624 8.03126C14.8651 7.28869 14.475 6.61145 13.9317 6.06816C13.3884 5.52486 12.7112 5.13481 11.9686 4.93751C11.8871 4.90781 11.8003 4.89541 11.7137 4.9011C11.6271 4.90679 11.5427 4.93044 11.4657 4.97056C11.3888 5.01067 11.3211 5.06637 11.2668 5.1341C11.2126 5.20183 11.1731 5.28011 11.1507 5.36395C11.1284 5.4478 11.1238 5.53538 11.1372 5.62111C11.1505 5.70684 11.1816 5.78885 11.2284 5.86191C11.2752 5.93497 11.3368 5.99748 11.409 6.04547C11.4813 6.09345 11.5628 6.12586 11.6483 6.14063Z" fill="#F8CC58"/>
</g>
<defs>
<clipPath id="clip0_24_7">
<rect width="20" height="20" fill="white"/>
</clipPath>
</defs>
</svg>
