<svg width="28" height="27" viewBox="0 0 28 27" fill="none" xmlns="http://www.w3.org/2000/svg">
<path d="M7.64135 23.3977C6.70962 23.3978 5.79879 23.1216 5.02404 22.6041C4.24929 22.0865 3.64542 21.3508 3.28879 20.4901C2.93217 19.6293 2.8388 18.6821 3.02051 17.7683C3.20221 16.8544 3.65083 16.015 4.30962 15.3561C4.96841 14.6973 5.80779 14.2486 6.7216 14.0668C7.63541 13.8849 8.58262 13.9782 9.44343 14.3347C10.3042 14.6913 11.04 15.2951 11.5576 16.0697C12.0753 16.8444 12.3516 17.7552 12.3516 18.687C12.3502 19.9358 11.8535 21.1331 10.9705 22.0162C10.0875 22.8994 8.8902 23.3962 7.64135 23.3977ZM7.64135 15.5588C7.0225 15.5587 6.41751 15.7421 5.90292 16.0858C5.38832 16.4296 4.98722 16.9182 4.75035 17.4899C4.51348 18.0617 4.45147 18.6908 4.57218 19.2977C4.69289 19.9047 4.99088 20.4622 5.42847 20.8998C5.86606 21.3374 6.4236 21.6354 7.03056 21.7561C7.63753 21.8768 8.26665 21.8148 8.83837 21.578C9.4101 21.3411 9.89873 20.94 10.2425 20.4254C10.5862 19.9108 10.7697 19.3058 10.7695 18.687C10.7691 17.8572 10.4395 17.0616 9.85298 16.4747C9.26648 15.8878 8.47106 15.5576 7.64135 15.5566V15.5588Z" fill="#201E28" stroke="#201E28" stroke-width="0.5"/>
<path d="M19.4195 23.3977C18.4878 23.3978 17.577 23.1216 16.8022 22.6041C16.0275 22.0865 15.4236 21.3508 15.067 20.4901C14.7104 19.6293 14.617 18.6821 14.7987 17.7683C14.9804 16.8544 15.429 16.015 16.0878 15.3561C16.7466 14.6973 17.586 14.2486 18.4998 14.0668C19.4136 13.8849 20.3608 13.9782 21.2216 14.3347C22.0824 14.6913 22.8182 15.2951 23.3358 16.0697C23.8535 16.8444 24.1298 17.7552 24.1298 18.687C24.1285 19.9359 23.6319 21.1332 22.7488 22.0164C21.8658 22.8995 20.6684 23.3963 19.4195 23.3977ZM19.4195 15.5588C18.8007 15.5587 18.1957 15.7421 17.6811 16.0858C17.1665 16.4296 16.7654 16.9182 16.5285 17.4899C16.2917 18.0617 16.2297 18.6908 16.3504 19.2977C16.4711 19.9047 16.7691 20.4622 17.2067 20.8998C17.6443 21.3374 18.2018 21.6354 18.8088 21.7561C19.4157 21.8768 20.0448 21.8148 20.6166 21.578C21.1883 21.3411 21.6769 20.94 22.0207 20.4254C22.3644 19.9108 22.5479 19.3058 22.5477 18.687C22.5473 17.8572 22.2177 17.0616 21.6312 16.4747C21.0447 15.8878 20.2493 15.5576 19.4195 15.5566V15.5588Z" fill="#201E28" stroke="#201E28" stroke-width="0.5"/>
<path d="M15.5003 19.478H11.5605C11.3508 19.478 11.1496 19.3947 11.0012 19.2463C10.8529 19.098 10.7695 18.8968 10.7695 18.687C10.7695 18.4772 10.8529 18.276 11.0012 18.1277C11.1496 17.9793 11.3508 17.896 11.5605 17.896H15.5003C15.7101 17.896 15.9113 17.9793 16.0597 18.1277C16.208 18.276 16.2913 18.4772 16.2913 18.687C16.2913 18.8968 16.208 19.098 16.0597 19.2463C15.9113 19.3947 15.7101 19.478 15.5003 19.478Z" fill="#201E28" stroke="#201E28" stroke-width="0.5"/>
<path d="M3.72168 19.478C3.51189 19.478 3.31069 19.3946 3.16235 19.2463C3.014 19.098 2.93066 18.8968 2.93066 18.687V7.33484C2.93066 6.66001 3.19874 6.01283 3.67591 5.53565C4.15309 5.05848 4.80027 4.79041 5.4751 4.79041C6.14992 4.79041 6.79711 5.05848 7.27428 5.53565C7.75146 6.01283 8.01953 6.66001 8.01953 7.33484C8.01953 7.54463 7.93619 7.74583 7.78785 7.89417C7.6395 8.04252 7.43831 8.12585 7.22852 8.12585C7.01873 8.12585 6.81753 8.04252 6.66918 7.89417C6.52084 7.74583 6.4375 7.54463 6.4375 7.33484C6.4375 7.07959 6.3361 6.8348 6.15562 6.65432C5.97513 6.47383 5.73034 6.37244 5.4751 6.37244C5.21985 6.37244 4.97506 6.47383 4.79458 6.65432C4.61409 6.8348 4.5127 7.07959 4.5127 7.33484V18.687C4.5127 18.8968 4.42936 19.098 4.28101 19.2463C4.13267 19.3946 3.93147 19.478 3.72168 19.478Z" fill="#201E28" stroke="#201E28" stroke-width="0.5"/>
<path d="M23.3388 19.478C23.129 19.478 22.9278 19.3946 22.7795 19.2463C22.6311 19.098 22.5478 18.8968 22.5478 18.687V7.33484C22.5478 7.07959 22.4464 6.8348 22.2659 6.65432C22.0854 6.47383 21.8406 6.37244 21.5854 6.37244C21.3301 6.37244 21.0854 6.47383 20.9049 6.65432C20.7244 6.8348 20.623 7.07959 20.623 7.33484C20.623 7.54463 20.5396 7.74583 20.3913 7.89417C20.243 8.04252 20.0418 8.12585 19.832 8.12585C19.6222 8.12585 19.421 8.04252 19.2726 7.89417C19.1243 7.74583 19.041 7.54463 19.041 7.33484C19.041 6.66001 19.309 6.01283 19.7862 5.53565C20.2634 5.05848 20.9106 4.79041 21.5854 4.79041C22.2602 4.79041 22.9074 5.05848 23.3846 5.53565C23.8617 6.01283 24.1298 6.66001 24.1298 7.33484V18.687C24.1298 18.8968 24.0465 19.098 23.8981 19.2463C23.7498 19.3946 23.5486 19.478 23.3388 19.478Z" fill="#201E28" stroke="#201E28" stroke-width="0.5"/>
</svg>
